<?xml version="1.0" encoding="UTF-8"?>
<svg height="20.0" width="519.4326647564469" xmlns="http://www.w3.org/2000/svg">
 <g>
  <rect x="10.0" y="-215.0" width="1.4326647564469914" height="225.0" style="fill:cyan;opacity:0.3;"/>
  <text x="10.0" y="10.0" transform="matrix(6.123233995736766E-17,-1.0,1.0,6.123233995736766E-17,0.0,20.0)" style="font-size:1.0000000000000013px;">United States</text>
  <rect x="11.0" y="-104.0" width="1.4326647564469914" height="114.0" style="fill:cyan;opacity:0.3;"/>
  <text x="11.0" y="10.0" transform="matrix(6.123233995736766E-17,-1.0,1.0,6.123233995736766E-17,1.0,21.0)" style="font-size:1.0000000000000013px;">United Kingdom</text>
  <rect x="12.0" y="-100.0" width="1.4326647564469914" height="110.0" style="fill:cyan;opacity:0.3;"/>
  <text x="12.0" y="10.0" transform="matrix(6.123233995736766E-17,-1.0,1.0,6.123233995736766E-17,2.0,22.0)" style="font-size:1.0000000000000013px;">India</text>
  <rect x="14.0" y="-96.0" width="1.4326647564469914" height="106.0" style="fill:cyan;opacity:0.3;"/>
  <text x="14.0" y="10.0" transform="matrix(6.123233995736766E-17,-1.0,1.0,6.123233995736766E-17,4.0,24.0)" style="font-size:1.0000000000000013px;">South Africa</text>
  <rect x="15.0" y="-95.0" width="1.4326647564469914" height="105.0" style="fill:cyan;opacity:0.3;"/>
  <text x="15.0" y="10.0" transform="matrix(6.123233995736766E-17,-1.0,1.0,6.123233995736766E-17,4.999999999999998,25.0)" style="font-size:1.0000000000000013px;">China</text>
  <rect x="17.0" y="-84.0" width="1.4326647564469914" height="94.0" style="fill:cyan;opacity:0.3;"/>
  <text x="17.0" y="10.0" transform="matrix(6.123233995736766E-17,-1.0,1.0,6.123233995736766E-17,6.999999999999998,27.0)" style="font-size:1.0000000000000013px;">Australia</text>
  <rect x="18.0" y="-80.0" width="1.4326647564469914" height="90.0" style="fill:cyan;opacity:0.3;"/>
  <text x="18.0" y="10.0" transform="matrix(6.123233995736766E-17,-1.0,1.0,6.123233995736766E-17,7.999999999999998,28.0)" style="font-size:1.0000000000000013px;">Kenya</text>
  <rect x="20.0" y="-78.0" width="1.4326647564469914" height="88.0" style="fill:cyan;opacity:0.3;"/>
  <text x="20.0" y="10.0" transform="matrix(6.123233995736766E-17,-1.0,1.0,6.123233995736766E-17,9.999999999999998,30.0)" style="font-size:1.0000000000000013px;">Uganda</text>
  <rect x="21.0" y="-70.0" width="1.4326647564469914" height="80.0" style="fill:cyan;opacity:0.3;"/>
  <text x="21.0" y="10.0" transform="matrix(6.123233995736766E-17,-1.0,1.0,6.123233995736766E-17,10.999999999999998,31.0)" style="font-size:1.0000000000000013px;">Canada</text>
  <rect x="22.0" y="-67.0" width="1.4326647564469914" height="77.0" style="fill:cyan;opacity:0.3;"/>
  <text x="22.0" y="10.0" transform="matrix(6.123233995736766E-17,-1.0,1.0,6.123233995736766E-17,11.999999999999998,32.0)" style="font-size:1.0000000000000013px;">France</text>
  <rect x="24.0" y="-65.0" width="1.4326647564469914" height="75.0" style="fill:cyan;opacity:0.3;"/>
  <text x="24.0" y="10.0" transform="matrix(6.123233995736766E-17,-1.0,1.0,6.123233995736766E-17,13.999999999999998,34.0)" style="font-size:1.0000000000000013px;">South Africa.</text>
  <rect x="25.0" y="-63.0" width="1.4326647564469914" height="73.0" style="fill:cyan;opacity:0.3;"/>
  <text x="25.0" y="10.0" transform="matrix(6.123233995736766E-17,-1.0,1.0,6.123233995736766E-17,14.999999999999998,35.0)" style="font-size:1.0000000000000013px;">Japan</text>
  <rect x="27.0" y="-63.0" width="1.4326647564469914" height="73.0" style="fill:cyan;opacity:0.3;"/>
  <text x="27.0" y="10.0" transform="matrix(6.123233995736766E-17,-1.0,1.0,6.123233995736766E-17,17.0,37.0)" style="font-size:1.0000000000000013px;">Nigeria</text>
  <rect x="28.0" y="-61.0" width="1.4326647564469914" height="71.0" style="fill:cyan;opacity:0.3;"/>
  <text x="28.0" y="10.0" transform="matrix(6.123233995736766E-17,-1.0,1.0,6.123233995736766E-17,18.0,38.0)" style="font-size:1.0000000000000013px;">United States.</text>
  <rect x="30.0" y="-58.0" width="1.4326647564469914" height="68.0" style="fill:cyan;opacity:0.3;"/>
  <text x="30.0" y="10.0" transform="matrix(6.123233995736766E-17,-1.0,1.0,6.123233995736766E-17,20.0,40.0)" style="font-size:1.0000000000000013px;">Germany</text>
  <rect x="31.0" y="-56.0" width="1.4326647564469914" height="66.0" style="fill:cyan;opacity:0.3;"/>
  <text x="31.0" y="10.0" transform="matrix(6.123233995736766E-17,-1.0,1.0,6.123233995736766E-17,21.0,41.0)" style="font-size:1.0000000000000013px;">Malawi</text>
  <rect x="32.0" y="-56.0" width="1.4326647564469914" height="66.0" style="fill:cyan;opacity:0.3;"/>
  <text x="32.0" y="10.0" transform="matrix(6.123233995736766E-17,-1.0,1.0,6.123233995736766E-17,22.0,42.0)" style="font-size:1.0000000000000013px;">Brazil</text>
  <rect x="34.0" y="-51.0" width="1.4326647564469914" height="61.0" style="fill:cyan;opacity:0.3;"/>
  <text x="34.0" y="10.0" transform="matrix(6.123233995736766E-17,-1.0,1.0,6.123233995736766E-17,24.0,44.0)" style="font-size:1.0000000000000013px;">Thailand</text>
  <rect x="35.0" y="-47.0" width="1.4326647564469914" height="57.0" style="fill:cyan;opacity:0.3;"/>
  <text x="35.0" y="10.0" transform="matrix(6.123233995736766E-17,-1.0,1.0,6.123233995736766E-17,25.0,45.0)" style="font-size:1.0000000000000013px;">United States,</text>
  <rect x="37.0" y="-47.0" width="1.4326647564469914" height="57.0" style="fill:cyan;opacity:0.3;"/>
  <text x="37.0" y="10.0" transform="matrix(6.123233995736766E-17,-1.0,1.0,6.123233995736766E-17,27.0,47.0)" style="font-size:1.0000000000000013px;">South Africa,</text>
  <rect x="38.0" y="-47.0" width="1.4326647564469914" height="57.0" style="fill:cyan;opacity:0.3;"/>
  <text x="38.0" y="10.0" transform="matrix(6.123233995736766E-17,-1.0,1.0,6.123233995736766E-17,28.0,48.0)" style="font-size:1.0000000000000013px;">Netherlands</text>
  <rect x="40.0" y="-45.0" width="1.4326647564469914" height="55.0" style="fill:cyan;opacity:0.3;"/>
  <text x="40.0" y="10.0" transform="matrix(6.123233995736766E-17,-1.0,1.0,6.123233995736766E-17,30.0,50.0)" style="font-size:1.0000000000000013px;">Italy</text>
  <rect x="41.0" y="-42.0" width="1.4326647564469914" height="52.0" style="fill:cyan;opacity:0.3;"/>
  <text x="41.0" y="10.0" transform="matrix(6.123233995736766E-17,-1.0,1.0,6.123233995736766E-17,31.0,51.0)" style="font-size:1.0000000000000013px;">New Zealand</text>
  <rect x="42.0" y="-42.0" width="1.4326647564469914" height="52.0" style="fill:cyan;opacity:0.3;"/>
  <text x="42.0" y="10.0" transform="matrix(6.123233995736766E-17,-1.0,1.0,6.123233995736766E-17,32.0,52.0)" style="font-size:1.0000000000000013px;">United Kingdom.</text>
  <rect x="44.0" y="-40.0" width="1.4326647564469914" height="50.0" style="fill:cyan;opacity:0.3;"/>
  <text x="44.0" y="10.0" transform="matrix(6.123233995736766E-17,-1.0,1.0,6.123233995736766E-17,34.0,54.0)" style="font-size:1.0000000000000013px;">Spain</text>
  <rect x="45.0" y="-39.0" width="1.4326647564469914" height="49.0" style="fill:cyan;opacity:0.3;"/>
  <text x="45.0" y="10.0" transform="matrix(6.123233995736766E-17,-1.0,1.0,6.123233995736766E-17,35.0,55.0)" style="font-size:1.0000000000000013px;">Ireland</text>
  <rect x="47.0" y="-39.0" width="1.4326647564469914" height="49.0" style="fill:cyan;opacity:0.3;"/>
  <text x="47.0" y="10.0" transform="matrix(6.123233995736766E-17,-1.0,1.0,6.123233995736766E-17,37.0,57.0)" style="font-size:1.0000000000000013px;">Mexico</text>
  <rect x="48.0" y="-33.0" width="1.4326647564469914" height="43.0" style="fill:cyan;opacity:0.3;"/>
  <text x="48.0" y="10.0" transform="matrix(6.123233995736766E-17,-1.0,1.0,6.123233995736766E-17,38.0,58.0)" style="font-size:1.0000000000000013px;">Sweden</text>
  <rect x="50.0" y="-33.0" width="1.4326647564469914" height="43.0" style="fill:cyan;opacity:0.3;"/>
  <text x="50.0" y="10.0" transform="matrix(6.123233995736766E-17,-1.0,1.0,6.123233995736766E-17,40.0,60.0)" style="font-size:1.0000000000000013px;">Zambia</text>
  <rect x="51.0" y="-32.0" width="1.4326647564469914" height="42.0" style="fill:cyan;opacity:0.3;"/>
  <text x="51.0" y="10.0" transform="matrix(6.123233995736766E-17,-1.0,1.0,6.123233995736766E-17,41.0,61.0)" style="font-size:1.0000000000000013px;">Guinea</text>
  <rect x="52.0" y="-31.0" width="1.4326647564469914" height="41.0" style="fill:cyan;opacity:0.3;"/>
  <text x="52.0" y="10.0" transform="matrix(6.123233995736766E-17,-1.0,1.0,6.123233995736766E-17,42.0,62.0)" style="font-size:1.0000000000000013px;">Zimbabwe</text>
  <rect x="54.0" y="-29.0" width="1.4326647564469914" height="39.0" style="fill:cyan;opacity:0.3;"/>
  <text x="54.0" y="10.0" transform="matrix(6.123233995736766E-17,-1.0,1.0,6.123233995736766E-17,44.0,64.0)" style="font-size:1.0000000000000013px;">Hong Kong</text>
  <rect x="55.0" y="-27.0" width="1.4326647564469914" height="37.0" style="fill:cyan;opacity:0.3;"/>
  <text x="55.0" y="10.0" transform="matrix(6.123233995736766E-17,-1.0,1.0,6.123233995736766E-17,45.0,65.0)" style="font-size:1.0000000000000013px;">United Kingdom,</text>
  <rect x="57.0" y="-24.0" width="1.4326647564469914" height="34.0" style="fill:cyan;opacity:0.3;"/>
  <text x="57.0" y="10.0" transform="matrix(6.123233995736766E-17,-1.0,1.0,6.123233995736766E-17,47.0,67.0)" style="font-size:1.0000000000000013px;">Ghana</text>
  <rect x="58.0" y="-23.0" width="1.4326647564469914" height="33.0" style="fill:cyan;opacity:0.3;"/>
  <text x="58.0" y="10.0" transform="matrix(6.123233995736766E-17,-1.0,1.0,6.123233995736766E-17,48.0,68.0)" style="font-size:1.0000000000000013px;">Ethiopia</text>
  <rect x="60.0" y="-22.0" width="1.4326647564469914" height="32.0" style="fill:cyan;opacity:0.3;"/>
  <text x="60.0" y="10.0" transform="matrix(6.123233995736766E-17,-1.0,1.0,6.123233995736766E-17,50.0,70.0)" style="font-size:1.0000000000000013px;">Pakistan</text>
  <rect x="61.0" y="-20.0" width="1.4326647564469914" height="30.0" style="fill:cyan;opacity:0.3;"/>
  <text x="61.0" y="10.0" transform="matrix(6.123233995736766E-17,-1.0,1.0,6.123233995736766E-17,51.0,71.0)" style="font-size:1.0000000000000013px;">Egypt</text>
  <rect x="63.0" y="-19.0" width="1.4326647564469914" height="29.0" style="fill:cyan;opacity:0.3;"/>
  <text x="63.0" y="10.0" transform="matrix(6.123233995736766E-17,-1.0,1.0,6.123233995736766E-17,53.0,73.0)" style="font-size:1.0000000000000013px;">Turkey</text>
  <rect x="64.0" y="-19.0" width="1.4326647564469914" height="29.0" style="fill:cyan;opacity:0.3;"/>
  <text x="64.0" y="10.0" transform="matrix(6.123233995736766E-17,-1.0,1.0,6.123233995736766E-17,54.0,74.0)" style="font-size:1.0000000000000013px;">Switzerland</text>
  <rect x="65.0" y="-19.0" width="1.4326647564469914" height="29.0" style="fill:cyan;opacity:0.3;"/>
  <text x="65.0" y="10.0" transform="matrix(6.123233995736766E-17,-1.0,1.0,6.123233995736766E-17,55.0,75.0)" style="font-size:1.0000000000000013px;">Indonesia</text>
  <rect x="67.0" y="-19.0" width="1.4326647564469914" height="29.0" style="fill:cyan;opacity:0.3;"/>
  <text x="67.0" y="10.0" transform="matrix(6.123233995736766E-17,-1.0,1.0,6.123233995736766E-17,57.0,77.0)" style="font-size:1.0000000000000013px;">Norway</text>
  <rect x="68.0" y="-19.0" width="1.4326647564469914" height="29.0" style="fill:cyan;opacity:0.3;"/>
  <text x="68.0" y="10.0" transform="matrix(6.123233995736766E-17,-1.0,1.0,6.123233995736766E-17,58.0,78.0)" style="font-size:1.0000000000000013px;">Denmark</text>
  <rect x="70.0" y="-18.0" width="1.4326647564469914" height="28.0" style="fill:cyan;opacity:0.3;"/>
  <text x="70.0" y="10.0" transform="matrix(6.123233995736766E-17,-1.0,1.0,6.123233995736766E-17,60.0,80.0)" style="font-size:1.0000000000000013px;">Malaysia</text>
  <rect x="71.0" y="-18.0" width="1.4326647564469914" height="28.0" style="fill:cyan;opacity:0.3;"/>
  <text x="71.0" y="10.0" transform="matrix(6.123233995736766E-17,-1.0,1.0,6.123233995736766E-17,61.0,81.0)" style="font-size:1.0000000000000013px;">Congo</text>
  <rect x="73.0" y="-17.0" width="1.4326647564469914" height="27.0" style="fill:cyan;opacity:0.3;"/>
  <text x="73.0" y="10.0" transform="matrix(6.123233995736766E-17,-1.0,1.0,6.123233995736766E-17,62.99999999999999,83.0)" style="font-size:1.0000000000000013px;">Gambia</text>
  <rect x="74.0" y="-17.0" width="1.4326647564469914" height="27.0" style="fill:cyan;opacity:0.3;"/>
  <text x="74.0" y="10.0" transform="matrix(6.123233995736766E-17,-1.0,1.0,6.123233995736766E-17,63.99999999999999,84.0)" style="font-size:1.0000000000000013px;">Singapore</text>
  <rect x="75.0" y="-17.0" width="1.4326647564469914" height="27.0" style="fill:cyan;opacity:0.3;"/>
  <text x="75.0" y="10.0" transform="matrix(6.123233995736766E-17,-1.0,1.0,6.123233995736766E-17,65.0,85.0)" style="font-size:1.0000000000000013px;">Israel</text>
  <rect x="77.0" y="-17.0" width="1.4326647564469914" height="27.0" style="fill:cyan;opacity:0.3;"/>
  <text x="77.0" y="10.0" transform="matrix(6.123233995736766E-17,-1.0,1.0,6.123233995736766E-17,67.0,87.0)" style="font-size:1.0000000000000013px;">Botswana</text>
  <rect x="78.0" y="-16.0" width="1.4326647564469914" height="26.0" style="fill:cyan;opacity:0.3;"/>
  <text x="78.0" y="10.0" transform="matrix(6.123233995736766E-17,-1.0,1.0,6.123233995736766E-17,68.0,88.0)" style="font-size:1.0000000000000013px;">Jordan</text>
  <rect x="80.0" y="-15.0" width="1.4326647564469914" height="25.0" style="fill:cyan;opacity:0.3;"/>
  <text x="80.0" y="10.0" transform="matrix(6.123233995736766E-17,-1.0,1.0,6.123233995736766E-17,70.0,90.0)" style="font-size:1.0000000000000013px;">Sudan</text>
  <rect x="81.0" y="-15.0" width="1.4326647564469914" height="25.0" style="fill:cyan;opacity:0.3;"/>
  <text x="81.0" y="10.0" transform="matrix(6.123233995736766E-17,-1.0,1.0,6.123233995736766E-17,71.0,91.0)" style="font-size:1.0000000000000013px;">Finland</text>
  <rect x="83.0" y="-13.0" width="1.4326647564469914" height="23.0" style="fill:cyan;opacity:0.3;"/>
  <text x="83.0" y="10.0" transform="matrix(6.123233995736766E-17,-1.0,1.0,6.123233995736766E-17,73.0,93.0)" style="font-size:1.0000000000000013px;">Cameroon</text>
  <rect x="84.0" y="-12.0" width="1.4326647564469914" height="22.0" style="fill:cyan;opacity:0.3;"/>
  <text x="84.0" y="10.0" transform="matrix(6.123233995736766E-17,-1.0,1.0,6.123233995736766E-17,74.0,94.0)" style="font-size:1.0000000000000013px;">Bangladesh</text>
  <rect x="85.0" y="-11.0" width="1.4326647564469914" height="21.0" style="fill:cyan;opacity:0.3;"/>
  <text x="85.0" y="10.0" transform="matrix(6.123233995736766E-17,-1.0,1.0,6.123233995736766E-17,75.0,95.0)" style="font-size:1.0000000000000013px;">Mozambique</text>
  <rect x="87.0" y="-11.0" width="1.4326647564469914" height="21.0" style="fill:cyan;opacity:0.3;"/>
  <text x="87.0" y="10.0" transform="matrix(6.123233995736766E-17,-1.0,1.0,6.123233995736766E-17,77.0,97.0)" style="font-size:1.0000000000000013px;">Senegal</text>
  <rect x="88.0" y="-11.0" width="1.4326647564469914" height="21.0" style="fill:cyan;opacity:0.3;"/>
  <text x="88.0" y="10.0" transform="matrix(6.123233995736766E-17,-1.0,1.0,6.123233995736766E-17,78.0,98.0)" style="font-size:1.0000000000000013px;">Peru</text>
  <rect x="90.0" y="-11.0" width="1.4326647564469914" height="21.0" style="fill:cyan;opacity:0.3;"/>
  <text x="90.0" y="10.0" transform="matrix(6.123233995736766E-17,-1.0,1.0,6.123233995736766E-17,80.0,100.0)" style="font-size:1.0000000000000013px;">Rwanda</text>
  <rect x="91.0" y="-11.0" width="1.4326647564469914" height="21.0" style="fill:cyan;opacity:0.3;"/>
  <text x="91.0" y="10.0" transform="matrix(6.123233995736766E-17,-1.0,1.0,6.123233995736766E-17,81.0,101.0)" style="font-size:1.0000000000000013px;">Belgium</text>
  <rect x="93.0" y="-10.0" width="1.4326647564469914" height="20.0" style="fill:cyan;opacity:0.3;"/>
  <text x="93.0" y="10.0" transform="matrix(6.123233995736766E-17,-1.0,1.0,6.123233995736766E-17,83.0,103.0)" style="font-size:1.0000000000000013px;">Greece</text>
  <rect x="94.0" y="-10.0" width="1.4326647564469914" height="20.0" style="fill:cyan;opacity:0.3;"/>
  <text x="94.0" y="10.0" transform="matrix(6.123233995736766E-17,-1.0,1.0,6.123233995736766E-17,84.0,104.0)" style="font-size:1.0000000000000013px;">Saudi Arabia</text>
  <rect x="95.0" y="-10.0" width="1.4326647564469914" height="20.0" style="fill:cyan;opacity:0.3;"/>
  <text x="95.0" y="10.0" transform="matrix(6.123233995736766E-17,-1.0,1.0,6.123233995736766E-17,85.0,105.0)" style="font-size:1.0000000000000013px;">Sierra Leone</text>
  <rect x="97.0" y="-9.0" width="1.4326647564469914" height="19.0" style="fill:cyan;opacity:0.3;"/>
  <text x="97.0" y="10.0" transform="matrix(6.123233995736766E-17,-1.0,1.0,6.123233995736766E-17,87.0,107.0)" style="font-size:1.0000000000000013px;">Poland</text>
  <rect x="98.0" y="-8.0" width="1.4326647564469914" height="18.0" style="fill:cyan;opacity:0.3;"/>
  <text x="98.0" y="10.0" transform="matrix(6.123233995736766E-17,-1.0,1.0,6.123233995736766E-17,88.0,108.0)" style="font-size:1.0000000000000013px;">Kuwait</text>
  <rect x="100.0" y="-6.0" width="1.4326647564469914" height="16.0" style="fill:cyan;opacity:0.3;"/>
  <text x="100.0" y="10.0" transform="matrix(6.123233995736766E-17,-1.0,1.0,6.123233995736766E-17,90.0,110.0)" style="font-size:1.0000000000000013px;">Portugal</text>
  <rect x="101.0" y="-6.0" width="1.4326647564469914" height="16.0" style="fill:cyan;opacity:0.3;"/>
  <text x="101.0" y="10.0" transform="matrix(6.123233995736766E-17,-1.0,1.0,6.123233995736766E-17,91.0,111.0)" style="font-size:1.0000000000000013px;">Argentina</text>
  <rect x="103.0" y="-6.0" width="1.4326647564469914" height="16.0" style="fill:cyan;opacity:0.3;"/>
  <text x="103.0" y="10.0" transform="matrix(6.123233995736766E-17,-1.0,1.0,6.123233995736766E-17,93.0,113.0)" style="font-size:1.0000000000000013px;">Philippines</text>
  <rect x="104.0" y="-6.0" width="1.4326647564469914" height="16.0" style="fill:cyan;opacity:0.3;"/>
  <text x="104.0" y="10.0" transform="matrix(6.123233995736766E-17,-1.0,1.0,6.123233995736766E-17,94.0,114.0)" style="font-size:1.0000000000000013px;">Burkina Faso</text>
  <rect x="105.0" y="-5.0" width="1.4326647564469914" height="15.0" style="fill:cyan;opacity:0.3;"/>
  <text x="105.0" y="10.0" transform="matrix(6.123233995736766E-17,-1.0,1.0,6.123233995736766E-17,95.0,115.0)" style="font-size:1.0000000000000013px;">Colombia</text>
  <rect x="107.0" y="-5.0" width="1.4326647564469914" height="15.0" style="fill:cyan;opacity:0.3;"/>
  <text x="107.0" y="10.0" transform="matrix(6.123233995736766E-17,-1.0,1.0,6.123233995736766E-17,97.0,117.0)" style="font-size:1.0000000000000013px;">Cambodia</text>
  <rect x="108.0" y="-5.0" width="1.4326647564469914" height="15.0" style="fill:cyan;opacity:0.3;"/>
  <text x="108.0" y="10.0" transform="matrix(6.123233995736766E-17,-1.0,1.0,6.123233995736766E-17,98.0,118.0)" style="font-size:1.0000000000000013px;">Liberia</text>
  <rect x="110.0" y="-4.0" width="1.4326647564469914" height="14.0" style="fill:cyan;opacity:0.3;"/>
  <text x="110.0" y="10.0" transform="matrix(6.123233995736766E-17,-1.0,1.0,6.123233995736766E-17,100.0,120.0)" style="font-size:1.0000000000000013px;">New Zealand.</text>
  <rect x="111.0" y="-4.0" width="1.4326647564469914" height="14.0" style="fill:cyan;opacity:0.3;"/>
  <text x="111.0" y="10.0" transform="matrix(6.123233995736766E-17,-1.0,1.0,6.123233995736766E-17,101.0,121.0)" style="font-size:1.0000000000000013px;">Hong Kong.</text>
  <rect x="113.0" y="-4.0" width="1.4326647564469914" height="14.0" style="fill:cyan;opacity:0.3;"/>
  <text x="113.0" y="10.0" transform="matrix(6.123233995736766E-17,-1.0,1.0,6.123233995736766E-17,103.0,123.0)" style="font-size:1.0000000000000013px;">Chile</text>
  <rect x="114.0" y="-3.0" width="1.4326647564469914" height="13.0" style="fill:cyan;opacity:0.3;"/>
  <text x="114.0" y="10.0" transform="matrix(6.123233995736766E-17,-1.0,1.0,6.123233995736766E-17,104.0,124.0)" style="font-size:1.0000000000000013px;">Oman</text>
  <rect x="116.0" y="-2.0" width="1.4326647564469914" height="12.0" style="fill:cyan;opacity:0.3;"/>
  <text x="116.0" y="10.0" transform="matrix(6.123233995736766E-17,-1.0,1.0,6.123233995736766E-17,106.0,126.0)" style="font-size:1.0000000000000013px;">Austria</text>
  <rect x="117.0" y="-2.0" width="1.4326647564469914" height="12.0" style="fill:cyan;opacity:0.3;"/>
  <text x="117.0" y="10.0" transform="matrix(6.123233995736766E-17,-1.0,1.0,6.123233995736766E-17,107.0,127.0)" style="font-size:1.0000000000000013px;">Mali</text>
  <rect x="118.0" y="-2.0" width="1.4326647564469914" height="12.0" style="fill:cyan;opacity:0.3;"/>
  <text x="118.0" y="10.0" transform="matrix(6.123233995736766E-17,-1.0,1.0,6.123233995736766E-17,108.0,128.0)" style="font-size:1.0000000000000013px;">Nepal</text>
  <rect x="120.0" y="-2.0" width="1.4326647564469914" height="12.0" style="fill:cyan;opacity:0.3;"/>
  <text x="120.0" y="10.0" transform="matrix(6.123233995736766E-17,-1.0,1.0,6.123233995736766E-17,110.0,130.0)" style="font-size:1.0000000000000013px;">Hong Kong,</text>
  <rect x="121.0" y="-2.0" width="1.4326647564469914" height="12.0" style="fill:cyan;opacity:0.3;"/>
  <text x="121.0" y="10.0" transform="matrix(6.123233995736766E-17,-1.0,1.0,6.123233995736766E-17,111.0,131.0)" style="font-size:1.0000000000000013px;">Niger</text>
  <rect x="123.0" y="-2.0" width="1.4326647564469914" height="12.0" style="fill:cyan;opacity:0.3;"/>
  <text x="123.0" y="10.0" transform="matrix(6.123233995736766E-17,-1.0,1.0,6.123233995736766E-17,113.0,133.0)" style="font-size:1.0000000000000013px;">Jersey</text>
  <rect x="124.0" y="-2.0" width="1.4326647564469914" height="12.0" style="fill:cyan;opacity:0.3;"/>
  <text x="124.0" y="10.0" transform="matrix(6.123233995736766E-17,-1.0,1.0,6.123233995736766E-17,114.0,134.0)" style="font-size:1.0000000000000013px;">Georgia</text>
  <rect x="126.0" y="-2.0" width="1.4326647564469914" height="12.0" style="fill:cyan;opacity:0.3;"/>
  <text x="126.0" y="10.0" transform="matrix(6.123233995736766E-17,-1.0,1.0,6.123233995736766E-17,116.0,136.0)" style="font-size:1.0000000000000013px;">Haiti</text>
  <rect x="127.0" y="-2.0" width="1.4326647564469914" height="12.0" style="fill:cyan;opacity:0.3;"/>
  <text x="127.0" y="10.0" transform="matrix(6.123233995736766E-17,-1.0,1.0,6.123233995736766E-17,117.0,137.0)" style="font-size:1.0000000000000013px;">Sri Lanka</text>
  <rect x="128.0" y="-1.0" width="1.4326647564469914" height="11.0" style="fill:cyan;opacity:0.3;"/>
  <text x="128.0" y="10.0" transform="matrix(6.123233995736766E-17,-1.0,1.0,6.123233995736766E-17,118.0,138.0)" style="font-size:1.0000000000000013px;">Madagascar</text>
  <rect x="130.0" y="-1.0" width="1.4326647564469914" height="11.0" style="fill:cyan;opacity:0.3;"/>
  <text x="130.0" y="10.0" transform="matrix(6.123233995736766E-17,-1.0,1.0,6.123233995736766E-17,120.0,140.0)" style="font-size:1.0000000000000013px;">Saudi Arabia.</text>
  <rect x="131.0" y="-1.0" width="1.4326647564469914" height="11.0" style="fill:cyan;opacity:0.3;"/>
  <text x="131.0" y="10.0" transform="matrix(6.123233995736766E-17,-1.0,1.0,6.123233995736766E-17,120.99999999999999,141.0)" style="font-size:1.0000000000000013px;">Cuba</text>
  <rect x="133.0" y="-1.0" width="1.4326647564469914" height="11.0" style="fill:cyan;opacity:0.3;"/>
  <text x="133.0" y="10.0" transform="matrix(6.123233995736766E-17,-1.0,1.0,6.123233995736766E-17,122.99999999999999,143.0)" style="font-size:1.0000000000000013px;">Morocco</text>
  <rect x="134.0" y="-1.0" width="1.4326647564469914" height="11.0" style="fill:cyan;opacity:0.3;"/>
  <text x="134.0" y="10.0" transform="matrix(6.123233995736766E-17,-1.0,1.0,6.123233995736766E-17,123.99999999999999,144.0)" style="font-size:1.0000000000000013px;">Iraq</text>
  <rect x="136.0" y="-1.0" width="1.4326647564469914" height="11.0" style="fill:cyan;opacity:0.3;"/>
  <text x="136.0" y="10.0" transform="matrix(6.123233995736766E-17,-1.0,1.0,6.123233995736766E-17,125.99999999999999,146.0)" style="font-size:1.0000000000000013px;">Benin</text>
  <rect x="137.0" y="0.0" width="1.4326647564469914" height="10.0" style="fill:cyan;opacity:0.3;"/>
  <text x="137.0" y="10.0" transform="matrix(6.123233995736766E-17,-1.0,1.0,6.123233995736766E-17,126.99999999999999,147.0)" style="font-size:1.0000000000000013px;">Afghanistan</text>
  <rect x="138.0" y="0.0" width="1.4326647564469914" height="10.0" style="fill:cyan;opacity:0.3;"/>
  <text x="138.0" y="10.0" transform="matrix(6.123233995736766E-17,-1.0,1.0,6.123233995736766E-17,127.99999999999999,148.0)" style="font-size:1.0000000000000013px;">Hungary</text>
  <rect x="140.0" y="0.0" width="1.4326647564469914" height="10.0" style="fill:cyan;opacity:0.3;"/>
  <text x="140.0" y="10.0" transform="matrix(6.123233995736766E-17,-1.0,1.0,6.123233995736766E-17,130.0,150.0)" style="font-size:1.0000000000000013px;">Burkina Faso.</text>
  <rect x="141.0" y="0.0" width="1.4326647564469914" height="10.0" style="fill:cyan;opacity:0.3;"/>
  <text x="141.0" y="10.0" transform="matrix(6.123233995736766E-17,-1.0,1.0,6.123233995736766E-17,131.0,151.0)" style="font-size:1.0000000000000013px;">Iceland</text>
  <rect x="143.0" y="0.0" width="1.4326647564469914" height="10.0" style="fill:cyan;opacity:0.3;"/>
  <text x="143.0" y="10.0" transform="matrix(6.123233995736766E-17,-1.0,1.0,6.123233995736766E-17,133.0,153.0)" style="font-size:1.0000000000000013px;">New Zealand,</text>
  <rect x="144.0" y="0.0" width="1.4326647564469914" height="10.0" style="fill:cyan;opacity:0.3;"/>
  <text x="144.0" y="10.0" transform="matrix(6.123233995736766E-17,-1.0,1.0,6.123233995736766E-17,134.0,154.0)" style="font-size:1.0000000000000013px;">Jamaica</text>
  <rect x="146.0" y="0.0" width="1.4326647564469914" height="10.0" style="fill:cyan;opacity:0.3;"/>
  <text x="146.0" y="10.0" transform="matrix(6.123233995736766E-17,-1.0,1.0,6.123233995736766E-17,136.0,156.0)" style="font-size:1.0000000000000013px;">Namibia</text>
  <rect x="147.0" y="0.0" width="1.4326647564469914" height="10.0" style="fill:cyan;opacity:0.3;"/>
  <text x="147.0" y="10.0" transform="matrix(6.123233995736766E-17,-1.0,1.0,6.123233995736766E-17,137.0,157.0)" style="font-size:1.0000000000000013px;">Burkina Faso,</text>
  <rect x="148.0" y="1.0" width="1.4326647564469914" height="9.0" style="fill:cyan;opacity:0.3;"/>
  <text x="148.0" y="10.0" transform="matrix(6.123233995736766E-17,-1.0,1.0,6.123233995736766E-17,138.0,158.0)" style="font-size:1.0000000000000013px;">Saudi Arabia,</text>
  <rect x="150.0" y="1.0" width="1.4326647564469914" height="9.0" style="fill:cyan;opacity:0.3;"/>
  <text x="150.0" y="10.0" transform="matrix(6.123233995736766E-17,-1.0,1.0,6.123233995736766E-17,140.0,160.0)" style="font-size:1.0000000000000013px;">Panama</text>
  <rect x="151.0" y="1.0" width="1.4326647564469914" height="9.0" style="fill:cyan;opacity:0.3;"/>
  <text x="151.0" y="10.0" transform="matrix(6.123233995736766E-17,-1.0,1.0,6.123233995736766E-17,141.0,161.0)" style="font-size:1.0000000000000013px;">Tunisia</text>
  <rect x="153.0" y="1.0" width="1.4326647564469914" height="9.0" style="fill:cyan;opacity:0.3;"/>
  <text x="153.0" y="10.0" transform="matrix(6.123233995736766E-17,-1.0,1.0,6.123233995736766E-17,143.0,163.0)" style="font-size:1.0000000000000013px;">Romania</text>
  <rect x="154.0" y="1.0" width="1.4326647564469914" height="9.0" style="fill:cyan;opacity:0.3;"/>
  <text x="154.0" y="10.0" transform="matrix(6.123233995736766E-17,-1.0,1.0,6.123233995736766E-17,144.0,164.0)" style="font-size:1.0000000000000013px;">Sierra Leone.</text>
  <rect x="156.0" y="1.0" width="1.4326647564469914" height="9.0" style="fill:cyan;opacity:0.3;"/>
  <text x="156.0" y="10.0" transform="matrix(6.123233995736766E-17,-1.0,1.0,6.123233995736766E-17,146.0,166.0)" style="font-size:1.0000000000000013px;">Lesotho</text>
  <rect x="157.0" y="1.0" width="1.4326647564469914" height="9.0" style="fill:cyan;opacity:0.3;"/>
  <text x="157.0" y="10.0" transform="matrix(6.123233995736766E-17,-1.0,1.0,6.123233995736766E-17,147.0,167.0)" style="font-size:1.0000000000000013px;">Sierra Leone,</text>
  <rect x="158.0" y="2.0" width="1.4326647564469914" height="8.0" style="fill:cyan;opacity:0.3;"/>
  <text x="158.0" y="10.0" transform="matrix(6.123233995736766E-17,-1.0,1.0,6.123233995736766E-17,148.0,168.0)" style="font-size:1.0000000000000013px;">Gabon</text>
  <rect x="160.0" y="2.0" width="1.4326647564469914" height="8.0" style="fill:cyan;opacity:0.3;"/>
  <text x="160.0" y="10.0" transform="matrix(6.123233995736766E-17,-1.0,1.0,6.123233995736766E-17,150.0,170.0)" style="font-size:1.0000000000000013px;">Fiji</text>
  <rect x="161.0" y="2.0" width="1.4326647564469914" height="8.0" style="fill:cyan;opacity:0.3;"/>
  <text x="161.0" y="10.0" transform="matrix(6.123233995736766E-17,-1.0,1.0,6.123233995736766E-17,151.0,171.0)" style="font-size:1.0000000000000013px;">Puerto Rico</text>
  <rect x="163.0" y="2.0" width="1.4326647564469914" height="8.0" style="fill:cyan;opacity:0.3;"/>
  <text x="163.0" y="10.0" transform="matrix(6.123233995736766E-17,-1.0,1.0,6.123233995736766E-17,153.0,173.0)" style="font-size:1.0000000000000013px;">Viet Nam</text>
  <rect x="164.0" y="2.0" width="1.4326647564469914" height="8.0" style="fill:cyan;opacity:0.3;"/>
  <text x="164.0" y="10.0" transform="matrix(6.123233995736766E-17,-1.0,1.0,6.123233995736766E-17,154.0,174.0)" style="font-size:1.0000000000000013px;">Chad</text>
  <rect x="166.0" y="2.0" width="1.4326647564469914" height="8.0" style="fill:cyan;opacity:0.3;"/>
  <text x="166.0" y="10.0" transform="matrix(6.123233995736766E-17,-1.0,1.0,6.123233995736766E-17,156.0,176.0)" style="font-size:1.0000000000000013px;">Papua New Guine</text>
  <rect x="167.0" y="3.0" width="1.4326647564469914" height="7.0" style="fill:cyan;opacity:0.3;"/>
  <text x="167.0" y="10.0" transform="matrix(6.123233995736766E-17,-1.0,1.0,6.123233995736766E-17,157.0,177.0)" style="font-size:1.0000000000000013px;">Bahrain</text>
  <rect x="169.0" y="3.0" width="1.4326647564469914" height="7.0" style="fill:cyan;opacity:0.3;"/>
  <text x="169.0" y="10.0" transform="matrix(6.123233995736766E-17,-1.0,1.0,6.123233995736766E-17,159.0,179.0)" style="font-size:1.0000000000000013px;">Swaziland</text>
  <rect x="170.0" y="3.0" width="1.4326647564469914" height="7.0" style="fill:cyan;opacity:0.3;"/>
  <text x="170.0" y="10.0" transform="matrix(6.123233995736766E-17,-1.0,1.0,6.123233995736766E-17,160.0,180.0)" style="font-size:1.0000000000000013px;">Bolivia</text>
  <rect x="171.0" y="3.0" width="1.4326647564469914" height="7.0" style="fill:cyan;opacity:0.3;"/>
  <text x="171.0" y="10.0" transform="matrix(6.123233995736766E-17,-1.0,1.0,6.123233995736766E-17,161.0,181.0)" style="font-size:1.0000000000000013px;">Yemen</text>
  <rect x="173.0" y="3.0" width="1.4326647564469914" height="7.0" style="fill:cyan;opacity:0.3;"/>
  <text x="173.0" y="10.0" transform="matrix(6.123233995736766E-17,-1.0,1.0,6.123233995736766E-17,163.0,183.0)" style="font-size:1.0000000000000013px;">Sri Lanka.</text>
  <rect x="174.0" y="3.0" width="1.4326647564469914" height="7.0" style="fill:cyan;opacity:0.3;"/>
  <text x="174.0" y="10.0" transform="matrix(6.123233995736766E-17,-1.0,1.0,6.123233995736766E-17,164.0,184.0)" style="font-size:1.0000000000000013px;">Viet Nam.</text>
  <rect x="176.0" y="3.0" width="1.4326647564469914" height="7.0" style="fill:cyan;opacity:0.3;"/>
  <text x="176.0" y="10.0" transform="matrix(6.123233995736766E-17,-1.0,1.0,6.123233995736766E-17,166.0,186.0)" style="font-size:1.0000000000000013px;">Somalia</text>
  <rect x="177.0" y="3.0" width="1.4326647564469914" height="7.0" style="fill:cyan;opacity:0.3;"/>
  <text x="177.0" y="10.0" transform="matrix(6.123233995736766E-17,-1.0,1.0,6.123233995736766E-17,167.0,187.0)" style="font-size:1.0000000000000013px;">Myanmar</text>
  <rect x="179.0" y="3.0" width="1.4326647564469914" height="7.0" style="fill:cyan;opacity:0.3;"/>
  <text x="179.0" y="10.0" transform="matrix(6.123233995736766E-17,-1.0,1.0,6.123233995736766E-17,169.0,189.0)" style="font-size:1.0000000000000013px;">Ecuador</text>
  <rect x="180.0" y="4.0" width="1.4326647564469914" height="6.0" style="fill:cyan;opacity:0.3;"/>
  <text x="180.0" y="10.0" transform="matrix(6.123233995736766E-17,-1.0,1.0,6.123233995736766E-17,170.0,190.0)" style="font-size:1.0000000000000013px;">Guatemala</text>
  <rect x="181.0" y="4.0" width="1.4326647564469914" height="6.0" style="fill:cyan;opacity:0.3;"/>
  <text x="181.0" y="10.0" transform="matrix(6.123233995736766E-17,-1.0,1.0,6.123233995736766E-17,171.0,191.0)" style="font-size:1.0000000000000013px;">Libya</text>
  <rect x="183.0" y="4.0" width="1.4326647564469914" height="6.0" style="fill:cyan;opacity:0.3;"/>
  <text x="183.0" y="10.0" transform="matrix(6.123233995736766E-17,-1.0,1.0,6.123233995736766E-17,173.0,193.0)" style="font-size:1.0000000000000013px;">Angola</text>
  <rect x="184.0" y="4.0" width="1.4326647564469914" height="6.0" style="fill:cyan;opacity:0.3;"/>
  <text x="184.0" y="10.0" transform="matrix(6.123233995736766E-17,-1.0,1.0,6.123233995736766E-17,174.0,194.0)" style="font-size:1.0000000000000013px;">Nicaragua</text>
  <rect x="186.0" y="4.0" width="1.4326647564469914" height="6.0" style="fill:cyan;opacity:0.3;"/>
  <text x="186.0" y="10.0" transform="matrix(6.123233995736766E-17,-1.0,1.0,6.123233995736766E-17,176.0,196.0)" style="font-size:1.0000000000000013px;">Greenland</text>
  <rect x="187.0" y="4.0" width="1.4326647564469914" height="6.0" style="fill:cyan;opacity:0.3;"/>
  <text x="187.0" y="10.0" transform="matrix(6.123233995736766E-17,-1.0,1.0,6.123233995736766E-17,177.0,197.0)" style="font-size:1.0000000000000013px;">Bulgaria</text>
  <rect x="189.0" y="4.0" width="1.4326647564469914" height="6.0" style="fill:cyan;opacity:0.3;"/>
  <text x="189.0" y="10.0" transform="matrix(6.123233995736766E-17,-1.0,1.0,6.123233995736766E-17,179.0,199.0)" style="font-size:1.0000000000000013px;">Lebanon</text>
  <rect x="190.0" y="4.0" width="1.4326647564469914" height="6.0" style="fill:cyan;opacity:0.3;"/>
  <text x="190.0" y="10.0" transform="matrix(6.123233995736766E-17,-1.0,1.0,6.123233995736766E-17,180.0,200.0)" style="font-size:1.0000000000000013px;">Cyprus</text>
  <rect x="191.0" y="4.0" width="1.4326647564469914" height="6.0" style="fill:cyan;opacity:0.3;"/>
  <text x="191.0" y="10.0" transform="matrix(6.123233995736766E-17,-1.0,1.0,6.123233995736766E-17,181.0,201.0)" style="font-size:1.0000000000000013px;">Burundi</text>
  <rect x="193.0" y="4.0" width="1.4326647564469914" height="6.0" style="fill:cyan;opacity:0.3;"/>
  <text x="193.0" y="10.0" transform="matrix(6.123233995736766E-17,-1.0,1.0,6.123233995736766E-17,183.0,203.0)" style="font-size:1.0000000000000013px;">Uruguay</text>
  <rect x="194.0" y="4.0" width="1.4326647564469914" height="6.0" style="fill:cyan;opacity:0.3;"/>
  <text x="194.0" y="10.0" transform="matrix(6.123233995736766E-17,-1.0,1.0,6.123233995736766E-17,184.0,204.0)" style="font-size:1.0000000000000013px;">Puerto Rico,</text>
  <rect x="196.0" y="4.0" width="1.4326647564469914" height="6.0" style="fill:cyan;opacity:0.3;"/>
  <text x="196.0" y="10.0" transform="matrix(6.123233995736766E-17,-1.0,1.0,6.123233995736766E-17,186.0,206.0)" style="font-size:1.0000000000000013px;">Sri Lanka,</text>
  <rect x="197.0" y="4.0" width="1.4326647564469914" height="6.0" style="fill:cyan;opacity:0.3;"/>
  <text x="197.0" y="10.0" transform="matrix(6.123233995736766E-17,-1.0,1.0,6.123233995736766E-17,187.0,207.0)" style="font-size:1.0000000000000013px;">Belize</text>
  <rect x="199.0" y="4.0" width="1.4326647564469914" height="6.0" style="fill:cyan;opacity:0.3;"/>
  <text x="199.0" y="10.0" transform="matrix(6.123233995736766E-17,-1.0,1.0,6.123233995736766E-17,189.0,209.0)" style="font-size:1.0000000000000013px;">Togo</text>
  <rect x="200.0" y="4.0" width="1.4326647564469914" height="6.0" style="fill:cyan;opacity:0.3;"/>
  <text x="200.0" y="10.0" transform="matrix(6.123233995736766E-17,-1.0,1.0,6.123233995736766E-17,190.0,210.0)" style="font-size:1.0000000000000013px;">Czech Republic</text>
  <rect x="201.0" y="4.0" width="1.4326647564469914" height="6.0" style="fill:cyan;opacity:0.3;"/>
  <text x="201.0" y="10.0" transform="matrix(6.123233995736766E-17,-1.0,1.0,6.123233995736766E-17,191.0,211.0)" style="font-size:1.0000000000000013px;">Puerto Rico.</text>
  <rect x="203.0" y="5.0" width="1.4326647564469914" height="5.0" style="fill:cyan;opacity:0.3;"/>
  <text x="203.0" y="10.0" transform="matrix(6.123233995736766E-17,-1.0,1.0,6.123233995736766E-17,193.0,213.0)" style="font-size:1.0000000000000013px;">Ukraine</text>
  <rect x="204.0" y="5.0" width="1.4326647564469914" height="5.0" style="fill:cyan;opacity:0.3;"/>
  <text x="204.0" y="10.0" transform="matrix(6.123233995736766E-17,-1.0,1.0,6.123233995736766E-17,194.0,214.0)" style="font-size:1.0000000000000013px;">Costa Rica</text>
  <rect x="206.0" y="5.0" width="1.4326647564469914" height="5.0" style="fill:cyan;opacity:0.3;"/>
  <text x="206.0" y="10.0" transform="matrix(6.123233995736766E-17,-1.0,1.0,6.123233995736766E-17,196.0,216.0)" style="font-size:1.0000000000000013px;">Croatia</text>
  <rect x="207.0" y="5.0" width="1.4326647564469914" height="5.0" style="fill:cyan;opacity:0.3;"/>
  <text x="207.0" y="10.0" transform="matrix(6.123233995736766E-17,-1.0,1.0,6.123233995736766E-17,197.0,217.0)" style="font-size:1.0000000000000013px;">Central African</text>
  <rect x="209.0" y="5.0" width="1.4326647564469914" height="5.0" style="fill:cyan;opacity:0.3;"/>
  <text x="209.0" y="10.0" transform="matrix(6.123233995736766E-17,-1.0,1.0,6.123233995736766E-17,199.0,219.0)" style="font-size:1.0000000000000013px;">Mauritius</text>
  <rect x="210.0" y="5.0" width="1.4326647564469914" height="5.0" style="fill:cyan;opacity:0.3;"/>
  <text x="210.0" y="10.0" transform="matrix(6.123233995736766E-17,-1.0,1.0,6.123233995736766E-17,200.0,220.0)" style="font-size:1.0000000000000013px;">Algeria</text>
  <rect x="212.0" y="5.0" width="1.4326647564469914" height="5.0" style="fill:cyan;opacity:0.3;"/>
  <text x="212.0" y="10.0" transform="matrix(6.123233995736766E-17,-1.0,1.0,6.123233995736766E-17,202.0,222.0)" style="font-size:1.0000000000000013px;">Trinidad and To</text>
  <rect x="213.0" y="5.0" width="1.4326647564469914" height="5.0" style="fill:cyan;opacity:0.3;"/>
  <text x="213.0" y="10.0" transform="matrix(6.123233995736766E-17,-1.0,1.0,6.123233995736766E-17,203.0,223.0)" style="font-size:1.0000000000000013px;">Barbados</text>
  <rect x="214.0" y="5.0" width="1.4326647564469914" height="5.0" style="fill:cyan;opacity:0.3;"/>
  <text x="214.0" y="10.0" transform="matrix(6.123233995736766E-17,-1.0,1.0,6.123233995736766E-17,204.0,224.0)" style="font-size:1.0000000000000013px;">South Sudan</text>
  <rect x="216.0" y="5.0" width="1.4326647564469914" height="5.0" style="fill:cyan;opacity:0.3;"/>
  <text x="216.0" y="10.0" transform="matrix(6.123233995736766E-17,-1.0,1.0,6.123233995736766E-17,206.0,226.0)" style="font-size:1.0000000000000013px;">Slovenia</text>
  <rect x="217.0" y="5.0" width="1.4326647564469914" height="5.0" style="fill:cyan;opacity:0.3;"/>
  <text x="217.0" y="10.0" transform="matrix(6.123233995736766E-17,-1.0,1.0,6.123233995736766E-17,207.0,227.0)" style="font-size:1.0000000000000013px;">Qatar</text>
  <rect x="219.0" y="5.0" width="1.4326647564469914" height="5.0" style="fill:cyan;opacity:0.3;"/>
  <text x="219.0" y="10.0" transform="matrix(6.123233995736766E-17,-1.0,1.0,6.123233995736766E-17,209.0,229.0)" style="font-size:1.0000000000000013px;">South Africa;</text>
  <rect x="220.0" y="5.0" width="1.4326647564469914" height="5.0" style="fill:cyan;opacity:0.3;"/>
  <text x="220.0" y="10.0" transform="matrix(6.123233995736766E-17,-1.0,1.0,6.123233995736766E-17,210.0,230.0)" style="font-size:1.0000000000000013px;">Serbia</text>
  <rect x="222.0" y="5.0" width="1.4326647564469914" height="5.0" style="fill:cyan;opacity:0.3;"/>
  <text x="222.0" y="10.0" transform="matrix(6.123233995736766E-17,-1.0,1.0,6.123233995736766E-17,212.0,232.0)" style="font-size:1.0000000000000013px;">Papua New Guine</text>
  <rect x="223.0" y="5.0" width="1.4326647564469914" height="5.0" style="fill:cyan;opacity:0.3;"/>
  <text x="223.0" y="10.0" transform="matrix(6.123233995736766E-17,-1.0,1.0,6.123233995736766E-17,213.0,233.0)" style="font-size:1.0000000000000013px;">Dominican Repub</text>
  <rect x="224.0" y="6.0" width="1.4326647564469914" height="4.0" style="fill:cyan;opacity:0.3;"/>
  <text x="224.0" y="10.0" transform="matrix(6.123233995736766E-17,-1.0,1.0,6.123233995736766E-17,214.0,234.0)" style="font-size:1.0000000000000013px;">United Arab Emi</text>
  <rect x="226.0" y="6.0" width="1.4326647564469914" height="4.0" style="fill:cyan;opacity:0.3;"/>
  <text x="226.0" y="10.0" transform="matrix(6.123233995736766E-17,-1.0,1.0,6.123233995736766E-17,216.0,236.0)" style="font-size:1.0000000000000013px;">Honduras</text>
  <rect x="227.0" y="6.0" width="1.4326647564469914" height="4.0" style="fill:cyan;opacity:0.3;"/>
  <text x="227.0" y="10.0" transform="matrix(6.123233995736766E-17,-1.0,1.0,6.123233995736766E-17,217.0,237.0)" style="font-size:1.0000000000000013px;">Latvia</text>
  <rect x="229.0" y="6.0" width="1.4326647564469914" height="4.0" style="fill:cyan;opacity:0.3;"/>
  <text x="229.0" y="10.0" transform="matrix(6.123233995736766E-17,-1.0,1.0,6.123233995736766E-17,219.0,239.0)" style="font-size:1.0000000000000013px;">El Salvador</text>
  <rect x="230.0" y="6.0" width="1.4326647564469914" height="4.0" style="fill:cyan;opacity:0.3;"/>
  <text x="230.0" y="10.0" transform="matrix(6.123233995736766E-17,-1.0,1.0,6.123233995736766E-17,220.0,240.0)" style="font-size:1.0000000000000013px;">Eritrea</text>
  <rect x="232.0" y="6.0" width="1.4326647564469914" height="4.0" style="fill:cyan;opacity:0.3;"/>
  <text x="232.0" y="10.0" transform="matrix(6.123233995736766E-17,-1.0,1.0,6.123233995736766E-17,222.0,242.0)" style="font-size:1.0000000000000013px;">United Kingdom;</text>
  <rect x="233.0" y="6.0" width="1.4326647564469914" height="4.0" style="fill:cyan;opacity:0.3;"/>
  <text x="233.0" y="10.0" transform="matrix(6.123233995736766E-17,-1.0,1.0,6.123233995736766E-17,223.0,243.0)" style="font-size:1.0000000000000013px;">Malta</text>
  <rect x="234.0" y="7.0" width="1.4326647564469914" height="3.0" style="fill:cyan;opacity:0.3;"/>
  <text x="234.0" y="10.0" transform="matrix(6.123233995736766E-17,-1.0,1.0,6.123233995736766E-17,224.0,244.0)" style="font-size:1.0000000000000013px;">Guinea-Bissau</text>
  <rect x="236.0" y="7.0" width="1.4326647564469914" height="3.0" style="fill:cyan;opacity:0.3;"/>
  <text x="236.0" y="10.0" transform="matrix(6.123233995736766E-17,-1.0,1.0,6.123233995736766E-17,226.0,246.0)" style="font-size:1.0000000000000013px;">Armenia</text>
  <rect x="237.0" y="7.0" width="1.4326647564469914" height="3.0" style="fill:cyan;opacity:0.3;"/>
  <text x="237.0" y="10.0" transform="matrix(6.123233995736766E-17,-1.0,1.0,6.123233995736766E-17,227.0,247.0)" style="font-size:1.0000000000000013px;">Paraguay</text>
  <rect x="239.0" y="7.0" width="1.4326647564469914" height="3.0" style="fill:cyan;opacity:0.3;"/>
  <text x="239.0" y="10.0" transform="matrix(6.123233995736766E-17,-1.0,1.0,6.123233995736766E-17,229.0,249.0)" style="font-size:1.0000000000000013px;">Seychelles</text>
  <rect x="240.0" y="7.0" width="1.4326647564469914" height="3.0" style="fill:cyan;opacity:0.3;"/>
  <text x="240.0" y="10.0" transform="matrix(6.123233995736766E-17,-1.0,1.0,6.123233995736766E-17,230.0,250.0)" style="font-size:1.0000000000000013px;">Czech Republic,</text>
  <rect x="242.0" y="7.0" width="1.4326647564469914" height="3.0" style="fill:cyan;opacity:0.3;"/>
  <text x="242.0" y="10.0" transform="matrix(6.123233995736766E-17,-1.0,1.0,6.123233995736766E-17,232.0,252.0)" style="font-size:1.0000000000000013px;">Slovakia</text>
  <rect x="243.0" y="7.0" width="1.4326647564469914" height="3.0" style="fill:cyan;opacity:0.3;"/>
  <text x="243.0" y="10.0" transform="matrix(6.123233995736766E-17,-1.0,1.0,6.123233995736766E-17,233.0,253.0)" style="font-size:1.0000000000000013px;">Lithuania</text>
  <rect x="244.0" y="7.0" width="1.4326647564469914" height="3.0" style="fill:cyan;opacity:0.3;"/>
  <text x="244.0" y="10.0" transform="matrix(6.123233995736766E-17,-1.0,1.0,6.123233995736766E-17,234.0,254.0)" style="font-size:1.0000000000000013px;">Luxembourg</text>
  <rect x="246.0" y="7.0" width="1.4326647564469914" height="3.0" style="fill:cyan;opacity:0.3;"/>
  <text x="246.0" y="10.0" transform="matrix(6.123233995736766E-17,-1.0,1.0,6.123233995736766E-17,236.0,256.0)" style="font-size:1.0000000000000013px;">Estonia</text>
  <rect x="247.0" y="7.0" width="1.4326647564469914" height="3.0" style="fill:cyan;opacity:0.3;"/>
  <text x="247.0" y="10.0" transform="matrix(6.123233995736766E-17,-1.0,1.0,6.123233995736766E-17,236.99999999999997,257.0)" style="font-size:1.0000000000000013px;">Tonga</text>
  <rect x="249.0" y="7.0" width="1.4326647564469914" height="3.0" style="fill:cyan;opacity:0.3;"/>
  <text x="249.0" y="10.0" transform="matrix(6.123233995736766E-17,-1.0,1.0,6.123233995736766E-17,238.99999999999997,259.0)" style="font-size:1.0000000000000013px;">Costa Rica.</text>
  <rect x="250.0" y="7.0" width="1.4326647564469914" height="3.0" style="fill:cyan;opacity:0.3;"/>
  <text x="250.0" y="10.0" transform="matrix(6.123233995736766E-17,-1.0,1.0,6.123233995736766E-17,239.99999999999997,260.0)" style="font-size:1.0000000000000013px;">Mauritania</text>
  <rect x="252.0" y="7.0" width="1.4326647564469914" height="3.0" style="fill:cyan;opacity:0.3;"/>
  <text x="252.0" y="10.0" transform="matrix(6.123233995736766E-17,-1.0,1.0,6.123233995736766E-17,241.99999999999997,262.0)" style="font-size:1.0000000000000013px;">Costa Rica,</text>
  <rect x="253.0" y="7.0" width="1.4326647564469914" height="3.0" style="fill:cyan;opacity:0.3;"/>
  <text x="253.0" y="10.0" transform="matrix(6.123233995736766E-17,-1.0,1.0,6.123233995736766E-17,242.99999999999997,263.0)" style="font-size:1.0000000000000013px;">Viet Nam,</text>
  <rect x="254.0" y="7.0" width="1.4326647564469914" height="3.0" style="fill:cyan;opacity:0.3;"/>
  <text x="254.0" y="10.0" transform="matrix(6.123233995736766E-17,-1.0,1.0,6.123233995736766E-17,243.99999999999997,264.0)" style="font-size:1.0000000000000013px;">Papua New Guine</text>
  <rect x="256.0" y="7.0" width="1.4326647564469914" height="3.0" style="fill:cyan;opacity:0.3;"/>
  <text x="256.0" y="10.0" transform="matrix(6.123233995736766E-17,-1.0,1.0,6.123233995736766E-17,245.99999999999997,266.0)" style="font-size:1.0000000000000013px;">Montenegro</text>
  <rect x="257.0" y="7.0" width="1.4326647564469914" height="3.0" style="fill:cyan;opacity:0.3;"/>
  <text x="257.0" y="10.0" transform="matrix(6.123233995736766E-17,-1.0,1.0,6.123233995736766E-17,246.99999999999997,267.0)" style="font-size:1.0000000000000013px;">Mongolia</text>
  <rect x="259.0" y="8.0" width="1.4326647564469914" height="2.0" style="fill:cyan;opacity:0.3;"/>
  <text x="259.0" y="10.0" transform="matrix(6.123233995736766E-17,-1.0,1.0,6.123233995736766E-17,248.99999999999997,269.0)" style="font-size:1.0000000000000013px;">Solomon Islands</text>
  <rect x="260.0" y="8.0" width="1.4326647564469914" height="2.0" style="fill:cyan;opacity:0.3;"/>
  <text x="260.0" y="10.0" transform="matrix(6.123233995736766E-17,-1.0,1.0,6.123233995736766E-17,249.99999999999997,270.0)" style="font-size:1.0000000000000013px;">Vanuatu</text>
  <rect x="262.0" y="8.0" width="1.4326647564469914" height="2.0" style="fill:cyan;opacity:0.3;"/>
  <text x="262.0" y="10.0" transform="matrix(6.123233995736766E-17,-1.0,1.0,6.123233995736766E-17,251.99999999999997,272.0)" style="font-size:1.0000000000000013px;">Democratic Repu</text>
  <rect x="263.0" y="8.0" width="1.4326647564469914" height="2.0" style="fill:cyan;opacity:0.3;"/>
  <text x="263.0" y="10.0" transform="matrix(6.123233995736766E-17,-1.0,1.0,6.123233995736766E-17,252.99999999999997,273.0)" style="font-size:1.0000000000000013px;">Albania</text>
  <rect x="265.0" y="8.0" width="1.4326647564469914" height="2.0" style="fill:cyan;opacity:0.3;"/>
  <text x="265.0" y="10.0" transform="matrix(6.123233995736766E-17,-1.0,1.0,6.123233995736766E-17,254.99999999999997,275.0)" style="font-size:1.0000000000000013px;">Trinidad and To</text>
  <rect x="266.0" y="8.0" width="1.4326647564469914" height="2.0" style="fill:cyan;opacity:0.3;"/>
  <text x="266.0" y="10.0" transform="matrix(6.123233995736766E-17,-1.0,1.0,6.123233995736766E-17,255.99999999999997,276.0)" style="font-size:1.0000000000000013px;">Dominican Repub</text>
  <rect x="267.0" y="8.0" width="1.4326647564469914" height="2.0" style="fill:cyan;opacity:0.3;"/>
  <text x="267.0" y="10.0" transform="matrix(6.123233995736766E-17,-1.0,1.0,6.123233995736766E-17,257.0,277.0)" style="font-size:1.0000000000000013px;">Russian Federat</text>
  <rect x="269.0" y="8.0" width="1.4326647564469914" height="2.0" style="fill:cyan;opacity:0.3;"/>
  <text x="269.0" y="10.0" transform="matrix(6.123233995736766E-17,-1.0,1.0,6.123233995736766E-17,259.0,279.0)" style="font-size:1.0000000000000013px;">Martinique</text>
  <rect x="270.0" y="8.0" width="1.4326647564469914" height="2.0" style="fill:cyan;opacity:0.3;"/>
  <text x="270.0" y="10.0" transform="matrix(6.123233995736766E-17,-1.0,1.0,6.123233995736766E-17,260.0,280.0)" style="font-size:1.0000000000000013px;">Guyana</text>
  <rect x="272.0" y="8.0" width="1.4326647564469914" height="2.0" style="fill:cyan;opacity:0.3;"/>
  <text x="272.0" y="10.0" transform="matrix(6.123233995736766E-17,-1.0,1.0,6.123233995736766E-17,262.0,282.0)" style="font-size:1.0000000000000013px;">Bahamas</text>
  <rect x="273.0" y="8.0" width="1.4326647564469914" height="2.0" style="fill:cyan;opacity:0.3;"/>
  <text x="273.0" y="10.0" transform="matrix(6.123233995736766E-17,-1.0,1.0,6.123233995736766E-17,263.0,283.0)" style="font-size:1.0000000000000013px;">Central African</text>
  <rect x="275.0" y="8.0" width="1.4326647564469914" height="2.0" style="fill:cyan;opacity:0.3;"/>
  <text x="275.0" y="10.0" transform="matrix(6.123233995736766E-17,-1.0,1.0,6.123233995736766E-17,265.0,285.0)" style="font-size:1.0000000000000013px;">Suriname</text>
  <rect x="276.0" y="8.0" width="1.4326647564469914" height="2.0" style="fill:cyan;opacity:0.3;"/>
  <text x="276.0" y="10.0" transform="matrix(6.123233995736766E-17,-1.0,1.0,6.123233995736766E-17,266.0,286.0)" style="font-size:1.0000000000000013px;">Kazakhstan</text>
  <rect x="277.0" y="8.0" width="1.4326647564469914" height="2.0" style="fill:cyan;opacity:0.3;"/>
  <text x="277.0" y="10.0" transform="matrix(6.123233995736766E-17,-1.0,1.0,6.123233995736766E-17,267.0,287.0)" style="font-size:1.0000000000000013px;">Tajikistan</text>
  <rect x="279.0" y="8.0" width="1.4326647564469914" height="2.0" style="fill:cyan;opacity:0.3;"/>
  <text x="279.0" y="10.0" transform="matrix(6.123233995736766E-17,-1.0,1.0,6.123233995736766E-17,269.0,289.0)" style="font-size:1.0000000000000013px;">Grenada</text>
  <rect x="280.0" y="8.0" width="1.4326647564469914" height="2.0" style="fill:cyan;opacity:0.3;"/>
  <text x="280.0" y="10.0" transform="matrix(6.123233995736766E-17,-1.0,1.0,6.123233995736766E-17,270.0,290.0)" style="font-size:1.0000000000000013px;">Djibouti</text>
  <rect x="282.0" y="8.0" width="1.4326647564469914" height="2.0" style="fill:cyan;opacity:0.3;"/>
  <text x="282.0" y="10.0" transform="matrix(6.123233995736766E-17,-1.0,1.0,6.123233995736766E-17,272.0,292.0)" style="font-size:1.0000000000000013px;">Cayman Islands</text>
  <rect x="283.0" y="8.0" width="1.4326647564469914" height="2.0" style="fill:cyan;opacity:0.3;"/>
  <text x="283.0" y="10.0" transform="matrix(6.123233995736766E-17,-1.0,1.0,6.123233995736766E-17,273.0,293.0)" style="font-size:1.0000000000000013px;">Equatorial Guin</text>
  <rect x="285.0" y="8.0" width="1.4326647564469914" height="2.0" style="fill:cyan;opacity:0.3;"/>
  <text x="285.0" y="10.0" transform="matrix(6.123233995736766E-17,-1.0,1.0,6.123233995736766E-17,275.0,295.0)" style="font-size:1.0000000000000013px;">Trinidad and To</text>
  <rect x="286.0" y="8.0" width="1.4326647564469914" height="2.0" style="fill:cyan;opacity:0.3;"/>
  <text x="286.0" y="10.0" transform="matrix(6.123233995736766E-17,-1.0,1.0,6.123233995736766E-17,276.0,296.0)" style="font-size:1.0000000000000013px;">South Sudan,</text>
  <rect x="287.0" y="8.0" width="1.4326647564469914" height="2.0" style="fill:cyan;opacity:0.3;"/>
  <text x="287.0" y="10.0" transform="matrix(6.123233995736766E-17,-1.0,1.0,6.123233995736766E-17,277.0,297.0)" style="font-size:1.0000000000000013px;">Samoa</text>
  <rect x="289.0" y="8.0" width="1.4326647564469914" height="2.0" style="fill:cyan;opacity:0.3;"/>
  <text x="289.0" y="10.0" transform="matrix(6.123233995736766E-17,-1.0,1.0,6.123233995736766E-17,279.0,299.0)" style="font-size:1.0000000000000013px;">Runion</text>
  <rect x="290.0" y="8.0" width="1.4326647564469914" height="2.0" style="fill:cyan;opacity:0.3;"/>
  <text x="290.0" y="10.0" transform="matrix(6.123233995736766E-17,-1.0,1.0,6.123233995736766E-17,280.0,300.0)" style="font-size:1.0000000000000013px;">Guadeloupe</text>
  <rect x="292.0" y="8.0" width="1.4326647564469914" height="2.0" style="fill:cyan;opacity:0.3;"/>
  <text x="292.0" y="10.0" transform="matrix(6.123233995736766E-17,-1.0,1.0,6.123233995736766E-17,282.0,302.0)" style="font-size:1.0000000000000013px;">South Africa?</text>
  <rect x="293.0" y="8.0" width="1.4326647564469914" height="2.0" style="fill:cyan;opacity:0.3;"/>
  <text x="293.0" y="10.0" transform="matrix(6.123233995736766E-17,-1.0,1.0,6.123233995736766E-17,283.0,303.0)" style="font-size:1.0000000000000013px;">French Guiana</text>
  <rect x="295.0" y="8.0" width="1.4326647564469914" height="2.0" style="fill:cyan;opacity:0.3;"/>
  <text x="295.0" y="10.0" transform="matrix(6.123233995736766E-17,-1.0,1.0,6.123233995736766E-17,285.0,305.0)" style="font-size:1.0000000000000013px;">Uzbekistan</text>
  <rect x="296.0" y="8.0" width="1.4326647564469914" height="2.0" style="fill:cyan;opacity:0.3;"/>
  <text x="296.0" y="10.0" transform="matrix(6.123233995736766E-17,-1.0,1.0,6.123233995736766E-17,286.0,306.0)" style="font-size:1.0000000000000013px;">French Polynesi</text>
  <rect x="297.0" y="8.0" width="1.4326647564469914" height="2.0" style="fill:cyan;opacity:0.3;"/>
  <text x="297.0" y="10.0" transform="matrix(6.123233995736766E-17,-1.0,1.0,6.123233995736766E-17,287.0,307.0)" style="font-size:1.0000000000000013px;">Dominica</text>
  <rect x="299.0" y="8.0" width="1.4326647564469914" height="2.0" style="fill:cyan;opacity:0.3;"/>
  <text x="299.0" y="10.0" transform="matrix(6.123233995736766E-17,-1.0,1.0,6.123233995736766E-17,289.0,309.0)" style="font-size:1.0000000000000013px;">United Arab Emi</text>
  <rect x="300.0" y="8.0" width="1.4326647564469914" height="2.0" style="fill:cyan;opacity:0.3;"/>
  <text x="300.0" y="10.0" transform="matrix(6.123233995736766E-17,-1.0,1.0,6.123233995736766E-17,290.0,310.0)" style="font-size:1.0000000000000013px;">Czech Republic.</text>
  <rect x="302.0" y="9.0" width="1.4326647564469914" height="1.0" style="fill:cyan;opacity:0.3;"/>
  <text x="302.0" y="10.0" transform="matrix(6.123233995736766E-17,-1.0,1.0,6.123233995736766E-17,292.0,312.0)" style="font-size:1.0000000000000013px;">United States;</text>
  <rect x="303.0" y="9.0" width="1.4326647564469914" height="1.0" style="fill:cyan;opacity:0.3;"/>
  <text x="303.0" y="10.0" transform="matrix(6.123233995736766E-17,-1.0,1.0,6.123233995736766E-17,293.0,313.0)" style="font-size:1.0000000000000013px;">Comoros</text>
  <rect x="305.0" y="9.0" width="1.4326647564469914" height="1.0" style="fill:cyan;opacity:0.3;"/>
  <text x="305.0" y="10.0" transform="matrix(6.123233995736766E-17,-1.0,1.0,6.123233995736766E-17,295.0,315.0)" style="font-size:1.0000000000000013px;">Kiribati</text>
  <rect x="306.0" y="9.0" width="1.4326647564469914" height="1.0" style="fill:cyan;opacity:0.3;"/>
  <text x="306.0" y="10.0" transform="matrix(6.123233995736766E-17,-1.0,1.0,6.123233995736766E-17,296.0,316.0)" style="font-size:1.0000000000000013px;">United Arab Emi</text>
  <rect x="307.0" y="9.0" width="1.4326647564469914" height="1.0" style="fill:cyan;opacity:0.3;"/>
  <text x="307.0" y="10.0" transform="matrix(6.123233995736766E-17,-1.0,1.0,6.123233995736766E-17,297.0,317.0)" style="font-size:1.0000000000000013px;">Antarctica</text>
  <rect x="309.0" y="9.0" width="1.4326647564469914" height="1.0" style="fill:cyan;opacity:0.3;"/>
  <text x="309.0" y="10.0" transform="matrix(6.123233995736766E-17,-1.0,1.0,6.123233995736766E-17,299.0,319.0)" style="font-size:1.0000000000000013px;">Bhutan</text>
  <rect x="310.0" y="9.0" width="1.4326647564469914" height="1.0" style="fill:cyan;opacity:0.3;"/>
  <text x="310.0" y="10.0" transform="matrix(6.123233995736766E-17,-1.0,1.0,6.123233995736766E-17,300.0,320.0)" style="font-size:1.0000000000000013px;">El Salvador.</text>
  <rect x="312.0" y="9.0" width="1.4326647564469914" height="1.0" style="fill:cyan;opacity:0.3;"/>
  <text x="312.0" y="10.0" transform="matrix(6.123233995736766E-17,-1.0,1.0,6.123233995736766E-17,302.0,322.0)" style="font-size:1.0000000000000013px;">New Caledonia</text>
  <rect x="313.0" y="9.0" width="1.4326647564469914" height="1.0" style="fill:cyan;opacity:0.3;"/>
  <text x="313.0" y="10.0" transform="matrix(6.123233995736766E-17,-1.0,1.0,6.123233995736766E-17,303.0,323.0)" style="font-size:1.0000000000000013px;">Belarus</text>
  <rect x="315.0" y="9.0" width="1.4326647564469914" height="1.0" style="fill:cyan;opacity:0.3;"/>
  <text x="315.0" y="10.0" transform="matrix(6.123233995736766E-17,-1.0,1.0,6.123233995736766E-17,305.0,325.0)" style="font-size:1.0000000000000013px;">Cape Verde</text>
  <rect x="316.0" y="9.0" width="1.4326647564469914" height="1.0" style="fill:cyan;opacity:0.3;"/>
  <text x="316.0" y="10.0" transform="matrix(6.123233995736766E-17,-1.0,1.0,6.123233995736766E-17,306.0,326.0)" style="font-size:1.0000000000000013px;">Cte d'Ivoire</text>
  <rect x="318.0" y="9.0" width="1.4326647564469914" height="1.0" style="fill:cyan;opacity:0.3;"/>
  <text x="318.0" y="10.0" transform="matrix(6.123233995736766E-17,-1.0,1.0,6.123233995736766E-17,308.0,328.0)" style="font-size:1.0000000000000013px;">Dominican Repub</text>
  <rect x="319.0" y="9.0" width="1.4326647564469914" height="1.0" style="fill:cyan;opacity:0.3;"/>
  <text x="319.0" y="10.0" transform="matrix(6.123233995736766E-17,-1.0,1.0,6.123233995736766E-17,309.0,329.0)" style="font-size:1.0000000000000013px;">Central African</text>
  <rect x="320.0" y="9.0" width="1.4326647564469914" height="1.0" style="fill:cyan;opacity:0.3;"/>
  <text x="320.0" y="10.0" transform="matrix(6.123233995736766E-17,-1.0,1.0,6.123233995736766E-17,310.0,330.0)" style="font-size:1.0000000000000013px;">Sierra Leone?</text>
  <rect x="322.0" y="9.0" width="1.4326647564469914" height="1.0" style="fill:cyan;opacity:0.3;"/>
  <text x="322.0" y="10.0" transform="matrix(6.123233995736766E-17,-1.0,1.0,6.123233995736766E-17,312.0,332.0)" style="font-size:1.0000000000000013px;">El Salvador,</text>
  <rect x="323.0" y="9.0" width="1.4326647564469914" height="1.0" style="fill:cyan;opacity:0.3;"/>
  <text x="323.0" y="10.0" transform="matrix(6.123233995736766E-17,-1.0,1.0,6.123233995736766E-17,313.0,333.0)" style="font-size:1.0000000000000013px;">Guernsey</text>
  <rect x="325.0" y="9.0" width="1.4326647564469914" height="1.0" style="fill:cyan;opacity:0.3;"/>
  <text x="325.0" y="10.0" transform="matrix(6.123233995736766E-17,-1.0,1.0,6.123233995736766E-17,315.0,335.0)" style="font-size:1.0000000000000013px;">South Sudan.</text>
  <rect x="326.0" y="9.0" width="1.4326647564469914" height="1.0" style="fill:cyan;opacity:0.3;"/>
  <text x="326.0" y="10.0" transform="matrix(6.123233995736766E-17,-1.0,1.0,6.123233995736766E-17,316.0,336.0)" style="font-size:1.0000000000000013px;">Equatorial Guin</text>
  <rect x="328.0" y="9.0" width="1.4326647564469914" height="1.0" style="fill:cyan;opacity:0.3;"/>
  <text x="328.0" y="10.0" transform="matrix(6.123233995736766E-17,-1.0,1.0,6.123233995736766E-17,318.0,338.0)" style="font-size:1.0000000000000013px;">Democratic Repu</text>
  <rect x="329.0" y="9.0" width="1.4326647564469914" height="1.0" style="fill:cyan;opacity:0.3;"/>
  <text x="329.0" y="10.0" transform="matrix(6.123233995736766E-17,-1.0,1.0,6.123233995736766E-17,319.0,339.0)" style="font-size:1.0000000000000013px;">Solomon Islands</text>
  <rect x="330.0" y="9.0" width="1.4326647564469914" height="1.0" style="fill:cyan;opacity:0.3;"/>
  <text x="330.0" y="10.0" transform="matrix(6.123233995736766E-17,-1.0,1.0,6.123233995736766E-17,320.0,340.0)" style="font-size:1.0000000000000013px;">Isle of Man</text>
  <rect x="332.0" y="9.0" width="1.4326647564469914" height="1.0" style="fill:cyan;opacity:0.3;"/>
  <text x="332.0" y="10.0" transform="matrix(6.123233995736766E-17,-1.0,1.0,6.123233995736766E-17,322.0,342.0)" style="font-size:1.0000000000000013px;">Democratic Repu</text>
  <rect x="333.0" y="9.0" width="1.4326647564469914" height="1.0" style="fill:cyan;opacity:0.3;"/>
  <text x="333.0" y="10.0" transform="matrix(6.123233995736766E-17,-1.0,1.0,6.123233995736766E-17,323.0,343.0)" style="font-size:1.0000000000000013px;">French Guiana.</text>
  <rect x="335.0" y="9.0" width="1.4326647564469914" height="1.0" style="fill:cyan;opacity:0.3;"/>
  <text x="335.0" y="10.0" transform="matrix(6.123233995736766E-17,-1.0,1.0,6.123233995736766E-17,325.0,345.0)" style="font-size:1.0000000000000013px;">Bermuda</text>
  <rect x="336.0" y="9.0" width="1.4326647564469914" height="1.0" style="fill:cyan;opacity:0.3;"/>
  <text x="336.0" y="10.0" transform="matrix(6.123233995736766E-17,-1.0,1.0,6.123233995736766E-17,326.0,346.0)" style="font-size:1.0000000000000013px;">French Polynesi</text>
  <rect x="338.0" y="9.0" width="1.4326647564469914" height="1.0" style="fill:cyan;opacity:0.3;"/>
  <text x="338.0" y="10.0" transform="matrix(6.123233995736766E-17,-1.0,1.0,6.123233995736766E-17,328.0,348.0)" style="font-size:1.0000000000000013px;">Monaco</text>
  <rect x="339.0" y="9.0" width="1.4326647564469914" height="1.0" style="fill:cyan;opacity:0.3;"/>
  <text x="339.0" y="10.0" transform="matrix(6.123233995736766E-17,-1.0,1.0,6.123233995736766E-17,329.0,349.0)" style="font-size:1.0000000000000013px;">Sierra Leone;</text>
  <rect x="340.0" y="9.0" width="1.4326647564469914" height="1.0" style="fill:cyan;opacity:0.3;"/>
  <text x="340.0" y="10.0" transform="matrix(6.123233995736766E-17,-1.0,1.0,6.123233995736766E-17,330.0,350.0)" style="font-size:1.0000000000000013px;">Azerbaijan</text>
  <rect x="342.0" y="9.0" width="1.4326647564469914" height="1.0" style="fill:cyan;opacity:0.3;"/>
  <text x="342.0" y="10.0" transform="matrix(6.123233995736766E-17,-1.0,1.0,6.123233995736766E-17,332.0,352.0)" style="font-size:1.0000000000000013px;">Mayotte</text>
  <rect x="343.0" y="9.0" width="1.4326647564469914" height="1.0" style="fill:cyan;opacity:0.3;"/>
  <text x="343.0" y="10.0" transform="matrix(6.123233995736766E-17,-1.0,1.0,6.123233995736766E-17,333.0,353.0)" style="font-size:1.0000000000000013px;">Antigua</text>
  <rect x="345.0" y="9.0" width="1.4326647564469914" height="1.0" style="fill:cyan;opacity:0.3;"/>
  <text x="345.0" y="10.0" transform="matrix(6.123233995736766E-17,-1.0,1.0,6.123233995736766E-17,335.0,355.0)" style="font-size:1.0000000000000013px;">Equatorial Guin</text>
  <rect x="346.0" y="9.0" width="1.4326647564469914" height="1.0" style="fill:cyan;opacity:0.3;"/>
  <text x="346.0" y="10.0" transform="matrix(6.123233995736766E-17,-1.0,1.0,6.123233995736766E-17,336.0,356.0)" style="font-size:1.0000000000000013px;">Sao Tome and Pr</text>
  <rect x="348.0" y="9.0" width="1.4326647564469914" height="1.0" style="fill:cyan;opacity:0.3;"/>
  <text x="348.0" y="10.0" transform="matrix(6.123233995736766E-17,-1.0,1.0,6.123233995736766E-17,338.0,358.0)" style="font-size:1.0000000000000013px;">French Polynesi</text>
  <rect x="349.0" y="9.0" width="1.4326647564469914" height="1.0" style="fill:cyan;opacity:0.3;"/>
  <text x="349.0" y="10.0" transform="matrix(6.123233995736766E-17,-1.0,1.0,6.123233995736766E-17,339.0,359.0)" style="font-size:1.0000000000000013px;">Cape Verde,</text>
  <rect x="350.0" y="9.0" width="1.4326647564469914" height="1.0" style="fill:cyan;opacity:0.3;"/>
  <text x="350.0" y="10.0" transform="matrix(6.123233995736766E-17,-1.0,1.0,6.123233995736766E-17,340.0,360.0)" style="font-size:1.0000000000000013px;">Russian Federat</text>
  <rect x="352.0" y="9.0" width="1.4326647564469914" height="1.0" style="fill:cyan;opacity:0.3;"/>
  <text x="352.0" y="10.0" transform="matrix(6.123233995736766E-17,-1.0,1.0,6.123233995736766E-17,342.0,362.0)" style="font-size:1.0000000000000013px;">Russian Federat</text>
  <rect x="353.0" y="9.0" width="1.4326647564469914" height="1.0" style="fill:cyan;opacity:0.3;"/>
  <text x="353.0" y="10.0" transform="matrix(6.123233995736766E-17,-1.0,1.0,6.123233995736766E-17,343.0,363.0)" style="font-size:1.0000000000000013px;">Kyrgyzstan</text>
  <rect x="355.0" y="9.0" width="1.4326647564469914" height="1.0" style="fill:cyan;opacity:0.3;"/>
  <text x="355.0" y="10.0" transform="matrix(6.123233995736766E-17,-1.0,1.0,6.123233995736766E-17,345.0,365.0)" style="font-size:1.0000000000000013px;">Solomon Islands</text>
  <rect x="356.0" y="9.0" width="1.4326647564469914" height="1.0" style="fill:cyan;opacity:0.3;"/>
  <text x="356.0" y="10.0" transform="matrix(6.123233995736766E-17,-1.0,1.0,6.123233995736766E-17,346.0,366.0)" style="font-size:1.0000000000000013px;">Timor-Leste</text>
  <rect x="358.0" y="10.0" width="1.4326647564469914" height="0.0" style="fill:cyan;opacity:0.3;"/>
  <text x="358.0" y="10.0" transform="matrix(6.123233995736766E-17,-1.0,1.0,6.123233995736766E-17,348.0,368.0)" style="font-size:1.0000000000000013px;">Andorra</text>
  <rect x="359.0" y="10.0" width="1.4326647564469914" height="0.0" style="fill:cyan;opacity:0.3;"/>
  <text x="359.0" y="10.0" transform="matrix(6.123233995736766E-17,-1.0,1.0,6.123233995736766E-17,349.0,369.0)" style="font-size:1.0000000000000013px;">United Kingdom?</text>
  <rect x="361.0" y="10.0" width="1.4326647564469914" height="0.0" style="fill:cyan;opacity:0.3;"/>
  <text x="361.0" y="10.0" transform="matrix(6.123233995736766E-17,-1.0,1.0,6.123233995736766E-17,351.0,371.0)" style="font-size:1.0000000000000013px;">Turks and Caico</text>
  <rect x="362.0" y="10.0" width="1.4326647564469914" height="0.0" style="fill:cyan;opacity:0.3;"/>
  <text x="362.0" y="10.0" transform="matrix(6.123233995736766E-17,-1.0,1.0,6.123233995736766E-17,352.0,372.0)" style="font-size:1.0000000000000013px;">American Samoa</text>
  <rect x="363.0" y="10.0" width="1.4326647564469914" height="0.0" style="fill:cyan;opacity:0.3;"/>
  <text x="363.0" y="10.0" transform="matrix(6.123233995736766E-17,-1.0,1.0,6.123233995736766E-17,353.0,373.0)" style="font-size:1.0000000000000013px;">Brunei Darussal</text>
  <rect x="365.0" y="10.0" width="1.4326647564469914" height="0.0" style="fill:cyan;opacity:0.3;"/>
  <text x="365.0" y="10.0" transform="matrix(6.123233995736766E-17,-1.0,1.0,6.123233995736766E-17,355.0,375.0)" style="font-size:1.0000000000000013px;">Maldives</text>
  <rect x="366.0" y="10.0" width="1.4326647564469914" height="0.0" style="fill:cyan;opacity:0.3;"/>
  <text x="366.0" y="10.0" transform="matrix(6.123233995736766E-17,-1.0,1.0,6.123233995736766E-17,356.0,376.0)" style="font-size:1.0000000000000013px;">Viet Nam;</text>
  <rect x="368.0" y="10.0" width="1.4326647564469914" height="0.0" style="fill:cyan;opacity:0.3;"/>
  <text x="368.0" y="10.0" transform="matrix(6.123233995736766E-17,-1.0,1.0,6.123233995736766E-17,358.0,378.0)" style="font-size:1.0000000000000013px;">French Guiana,</text>
  <rect x="369.0" y="10.0" width="1.4326647564469914" height="0.0" style="fill:cyan;opacity:0.3;"/>
  <text x="369.0" y="10.0" transform="matrix(6.123233995736766E-17,-1.0,1.0,6.123233995736766E-17,359.0,379.0)" style="font-size:1.0000000000000013px;">Faroe Islands</text>
  <rect x="371.0" y="10.0" width="1.4326647564469914" height="0.0" style="fill:cyan;opacity:0.3;"/>
  <text x="371.0" y="10.0" transform="matrix(6.123233995736766E-17,-1.0,1.0,6.123233995736766E-17,361.0,381.0)" style="font-size:1.0000000000000013px;">Gibraltar</text>
  <rect x="372.0" y="10.0" width="1.4326647564469914" height="0.0" style="fill:cyan;opacity:0.3;"/>
  <text x="372.0" y="10.0" transform="matrix(6.123233995736766E-17,-1.0,1.0,6.123233995736766E-17,362.0,382.0)" style="font-size:1.0000000000000013px;">New Caledonia,</text>
  <rect x="373.0" y="10.0" width="1.4326647564469914" height="0.0" style="fill:cyan;opacity:0.3;"/>
  <text x="373.0" y="10.0" transform="matrix(6.123233995736766E-17,-1.0,1.0,6.123233995736766E-17,363.0,383.0)" style="font-size:1.0000000000000013px;">Nauru</text>
  <rect x="375.0" y="10.0" width="1.4326647564469914" height="0.0" style="fill:cyan;opacity:0.3;"/>
  <text x="375.0" y="10.0" transform="matrix(6.123233995736766E-17,-1.0,1.0,6.123233995736766E-17,365.0,385.0)" style="font-size:1.0000000000000013px;">Cayman Islands,</text>
  <rect x="376.0" y="10.0" width="1.4326647564469914" height="0.0" style="fill:cyan;opacity:0.3;"/>
  <text x="376.0" y="10.0" transform="matrix(6.123233995736766E-17,-1.0,1.0,6.123233995736766E-17,366.0,386.0)" style="font-size:1.0000000000000013px;">Cayman Islands.</text>
  <rect x="378.0" y="10.0" width="1.4326647564469914" height="0.0" style="fill:cyan;opacity:0.3;"/>
  <text x="378.0" y="10.0" transform="matrix(6.123233995736766E-17,-1.0,1.0,6.123233995736766E-17,368.0,388.0)" style="font-size:1.0000000000000013px;">Turkmenistan</text>
  <rect x="379.0" y="10.0" width="1.4326647564469914" height="0.0" style="fill:cyan;opacity:0.3;"/>
  <text x="379.0" y="10.0" transform="matrix(6.123233995736766E-17,-1.0,1.0,6.123233995736766E-17,369.0,389.0)" style="font-size:1.0000000000000013px;">Montserrat</text>
  <rect x="381.0" y="10.0" width="1.4326647564469914" height="0.0" style="fill:cyan;opacity:0.3;"/>
  <text x="381.0" y="10.0" transform="matrix(6.123233995736766E-17,-1.0,1.0,6.123233995736766E-17,371.0,391.0)" style="font-size:1.0000000000000013px;">Saint Kitts and</text>
  <rect x="382.0" y="10.0" width="1.4326647564469914" height="0.0" style="fill:cyan;opacity:0.3;"/>
  <text x="382.0" y="10.0" transform="matrix(6.123233995736766E-17,-1.0,1.0,6.123233995736766E-17,372.0,392.0)" style="font-size:1.0000000000000013px;">Antigua and Bar</text>
  <rect x="383.0" y="10.0" width="1.4326647564469914" height="0.0" style="fill:cyan;opacity:0.3;"/>
  <text x="383.0" y="10.0" transform="matrix(6.123233995736766E-17,-1.0,1.0,6.123233995736766E-17,373.0,393.0)" style="font-size:1.0000000000000013px;">Anguilla</text>
  <rect x="385.0" y="10.0" width="1.4326647564469914" height="0.0" style="fill:cyan;opacity:0.3;"/>
  <text x="385.0" y="10.0" transform="matrix(6.123233995736766E-17,-1.0,1.0,6.123233995736766E-17,375.0,395.0)" style="font-size:1.0000000000000013px;">Cte d'Ivoire.</text>
  <rect x="386.0" y="10.0" width="1.4326647564469914" height="0.0" style="fill:cyan;opacity:0.3;"/>
  <text x="386.0" y="10.0" transform="matrix(6.123233995736766E-17,-1.0,1.0,6.123233995736766E-17,376.0,396.0)" style="font-size:1.0000000000000013px;">Saudi Arabia;</text>
  <rect x="388.0" y="10.0" width="1.4326647564469914" height="0.0" style="fill:cyan;opacity:0.3;"/>
  <text x="388.0" y="10.0" transform="matrix(6.123233995736766E-17,-1.0,1.0,6.123233995736766E-17,378.0,398.0)" style="font-size:1.0000000000000013px;">Aruba</text>
  <rect x="389.0" y="10.0" width="1.4326647564469914" height="0.0" style="fill:cyan;opacity:0.3;"/>
  <text x="389.0" y="10.0" transform="matrix(6.123233995736766E-17,-1.0,1.0,6.123233995736766E-17,379.0,399.0)" style="font-size:1.0000000000000013px;">Isle of Man.</text>
  <rect x="391.0" y="10.0" width="1.4326647564469914" height="0.0" style="fill:cyan;opacity:0.3;"/>
  <text x="391.0" y="10.0" transform="matrix(6.123233995736766E-17,-1.0,1.0,6.123233995736766E-17,381.0,401.0)" style="font-size:1.0000000000000013px;">British Virgin </text>
  <rect x="392.0" y="10.0" width="1.4326647564469914" height="0.0" style="fill:cyan;opacity:0.3;"/>
  <text x="392.0" y="10.0" transform="matrix(6.123233995736766E-17,-1.0,1.0,6.123233995736766E-17,382.0,402.0)" style="font-size:1.0000000000000013px;">Palau</text>
  <rect x="393.0" y="10.0" width="1.4326647564469914" height="0.0" style="fill:cyan;opacity:0.3;"/>
  <text x="393.0" y="10.0" transform="matrix(6.123233995736766E-17,-1.0,1.0,6.123233995736766E-17,383.0,403.0)" style="font-size:1.0000000000000013px;">Saudi Arabia?</text>
  <rect x="395.0" y="10.0" width="1.4326647564469914" height="0.0" style="fill:cyan;opacity:0.3;"/>
  <text x="395.0" y="10.0" transform="matrix(6.123233995736766E-17,-1.0,1.0,6.123233995736766E-17,385.0,405.0)" style="font-size:1.0000000000000013px;">Bosnia and Herz</text>
  <rect x="396.0" y="10.0" width="1.4326647564469914" height="0.0" style="fill:cyan;opacity:0.3;"/>
  <text x="396.0" y="10.0" transform="matrix(6.123233995736766E-17,-1.0,1.0,6.123233995736766E-17,386.0,406.0)" style="font-size:1.0000000000000013px;">Isle of Man,</text>
  <rect x="398.0" y="10.0" width="1.4326647564469914" height="0.0" style="fill:cyan;opacity:0.3;"/>
  <text x="398.0" y="10.0" transform="matrix(6.123233995736766E-17,-1.0,1.0,6.123233995736766E-17,388.0,408.0)" style="font-size:1.0000000000000013px;">Burkina Faso;</text>
  <rect x="399.0" y="10.0" width="1.4326647564469914" height="0.0" style="fill:cyan;opacity:0.3;"/>
  <text x="399.0" y="10.0" transform="matrix(6.123233995736766E-17,-1.0,1.0,6.123233995736766E-17,389.0,409.0)" style="font-size:1.0000000000000013px;">Bosnia and Herz</text>
  <rect x="401.0" y="10.0" width="1.4326647564469914" height="0.0" style="fill:cyan;opacity:0.3;"/>
  <text x="401.0" y="10.0" transform="matrix(6.123233995736766E-17,-1.0,1.0,6.123233995736766E-17,391.0,411.0)" style="font-size:1.0000000000000013px;">Cook Islands,</text>
  <rect x="402.0" y="10.0" width="1.4326647564469914" height="0.0" style="fill:cyan;opacity:0.3;"/>
  <text x="402.0" y="10.0" transform="matrix(6.123233995736766E-17,-1.0,1.0,6.123233995736766E-17,392.0,412.0)" style="font-size:1.0000000000000013px;">Hong Kong;</text>
  <rect x="403.0" y="10.0" width="1.4326647564469914" height="0.0" style="fill:cyan;opacity:0.3;"/>
  <text x="403.0" y="10.0" transform="matrix(6.123233995736766E-17,-1.0,1.0,6.123233995736766E-17,393.0,413.0)" style="font-size:1.0000000000000013px;">Faroe Islands.</text>
  <rect x="405.0" y="10.0" width="1.4326647564469914" height="0.0" style="fill:cyan;opacity:0.3;"/>
  <text x="405.0" y="10.0" transform="matrix(6.123233995736766E-17,-1.0,1.0,6.123233995736766E-17,395.0,415.0)" style="font-size:1.0000000000000013px;">Tuvalu</text>
  <rect x="406.0" y="10.0" width="1.4326647564469914" height="0.0" style="fill:cyan;opacity:0.3;"/>
  <text x="406.0" y="10.0" transform="matrix(6.123233995736766E-17,-1.0,1.0,6.123233995736766E-17,396.0,416.0)" style="font-size:1.0000000000000013px;">Saint Lucia</text>
  <rect x="408.0" y="10.0" width="1.4326647564469914" height="0.0" style="fill:cyan;opacity:0.3;"/>
  <text x="408.0" y="10.0" transform="matrix(6.123233995736766E-17,-1.0,1.0,6.123233995736766E-17,398.0,418.0)" style="font-size:1.0000000000000013px;">San Marino</text>
  <rect x="409.0" y="10.0" width="1.4326647564469914" height="0.0" style="fill:cyan;opacity:0.3;"/>
  <text x="409.0" y="10.0" transform="matrix(6.123233995736766E-17,-1.0,1.0,6.123233995736766E-17,399.0,419.0)" style="font-size:1.0000000000000013px;">Turks and Caico</text>
  <rect x="411.0" y="10.0" width="1.4326647564469914" height="0.0" style="fill:cyan;opacity:0.3;"/>
  <text x="411.0" y="10.0" transform="matrix(6.123233995736766E-17,-1.0,1.0,6.123233995736766E-17,401.0,421.0)" style="font-size:1.0000000000000013px;">Lao People's De</text>
  <rect x="412.0" y="10.0" width="1.4326647564469914" height="0.0" style="fill:cyan;opacity:0.3;"/>
  <text x="412.0" y="10.0" transform="matrix(6.123233995736766E-17,-1.0,1.0,6.123233995736766E-17,402.0,422.0)" style="font-size:1.0000000000000013px;">New Zealand;</text>
  <rect x="414.0" y="10.0" width="1.4326647564469914" height="0.0" style="fill:cyan;opacity:0.3;"/>
  <text x="414.0" y="10.0" transform="matrix(6.123233995736766E-17,-1.0,1.0,6.123233995736766E-17,404.0,424.0)" style="font-size:1.0000000000000013px;">New Zealand?</text>
  <rect x="415.0" y="10.0" width="1.4326647564469914" height="0.0" style="fill:cyan;opacity:0.3;"/>
  <text x="415.0" y="10.0" transform="matrix(6.123233995736766E-17,-1.0,1.0,6.123233995736766E-17,405.0,425.0)" style="font-size:1.0000000000000013px;">Antigua and Bar</text>
  <rect x="416.0" y="10.0" width="1.4326647564469914" height="0.0" style="fill:cyan;opacity:0.3;"/>
  <text x="416.0" y="10.0" transform="matrix(6.123233995736766E-17,-1.0,1.0,6.123233995736766E-17,406.0,426.0)" style="font-size:1.0000000000000013px;">Cte d'Ivoire,</text>
  <rect x="418.0" y="10.0" width="1.4326647564469914" height="0.0" style="fill:cyan;opacity:0.3;"/>
  <text x="418.0" y="10.0" transform="matrix(6.123233995736766E-17,-1.0,1.0,6.123233995736766E-17,408.0,428.0)" style="font-size:1.0000000000000013px;">Cook Islands</text>
  <rect x="419.0" y="10.0" width="1.4326647564469914" height="0.0" style="fill:cyan;opacity:0.3;"/>
  <text x="419.0" y="10.0" transform="matrix(6.123233995736766E-17,-1.0,1.0,6.123233995736766E-17,409.0,429.0)" style="font-size:1.0000000000000013px;">Niue</text>
  <rect x="421.0" y="10.0" width="1.4326647564469914" height="0.0" style="fill:cyan;opacity:0.3;"/>
  <text x="421.0" y="10.0" transform="matrix(6.123233995736766E-17,-1.0,1.0,6.123233995736766E-17,411.0,431.0)" style="font-size:1.0000000000000013px;">Sao Tome and Pr</text>
  <rect x="422.0" y="10.0" width="1.4326647564469914" height="0.0" style="fill:cyan;opacity:0.3;"/>
  <text x="422.0" y="10.0" transform="matrix(6.123233995736766E-17,-1.0,1.0,6.123233995736766E-17,412.0,432.0)" style="font-size:1.0000000000000013px;">British Virgin </text>
  <rect x="424.0" y="10.0" width="1.4326647564469914" height="0.0" style="fill:cyan;opacity:0.3;"/>
  <text x="424.0" y="10.0" transform="matrix(6.123233995736766E-17,-1.0,1.0,6.123233995736766E-17,414.0,434.0)" style="font-size:1.0000000000000013px;">Puerto Rico;</text>
  <rect x="425.0" y="10.0" width="1.4326647564469914" height="0.0" style="fill:cyan;opacity:0.3;"/>
  <text x="425.0" y="10.0" transform="matrix(6.123233995736766E-17,-1.0,1.0,6.123233995736766E-17,415.0,435.0)" style="font-size:1.0000000000000013px;">Saint Martin,</text>
  <rect x="426.0" y="10.0" width="1.4326647564469914" height="0.0" style="fill:cyan;opacity:0.3;"/>
  <text x="426.0" y="10.0" transform="matrix(6.123233995736766E-17,-1.0,1.0,6.123233995736766E-17,416.0,436.0)" style="font-size:1.0000000000000013px;">Hong Kong?</text>
  <rect x="428.0" y="10.0" width="1.4326647564469914" height="0.0" style="fill:cyan;opacity:0.3;"/>
  <text x="428.0" y="10.0" transform="matrix(6.123233995736766E-17,-1.0,1.0,6.123233995736766E-17,418.0,438.0)" style="font-size:1.0000000000000013px;">Marshall Island</text>
  <rect x="429.0" y="10.0" width="1.4326647564469914" height="0.0" style="fill:cyan;opacity:0.3;"/>
  <text x="429.0" y="10.0" transform="matrix(6.123233995736766E-17,-1.0,1.0,6.123233995736766E-17,419.0,439.0)" style="font-size:1.0000000000000013px;">Trinidad and To</text>
  <rect x="431.0" y="10.0" width="1.4326647564469914" height="0.0" style="fill:cyan;opacity:0.3;"/>
  <text x="431.0" y="10.0" transform="matrix(6.123233995736766E-17,-1.0,1.0,6.123233995736766E-17,421.0,441.0)" style="font-size:1.0000000000000013px;">Trinidad and To</text>
  <rect x="432.0" y="10.0" width="1.4326647564469914" height="0.0" style="fill:cyan;opacity:0.3;"/>
  <text x="432.0" y="10.0" transform="matrix(6.123233995736766E-17,-1.0,1.0,6.123233995736766E-17,422.0,442.0)" style="font-size:1.0000000000000013px;">Saint Martin</text>
  <rect x="434.0" y="10.0" width="1.4326647564469914" height="0.0" style="fill:cyan;opacity:0.3;"/>
  <text x="434.0" y="10.0" transform="matrix(6.123233995736766E-17,-1.0,1.0,6.123233995736766E-17,424.0,444.0)" style="font-size:1.0000000000000013px;">Liechtenstein</text>
  <rect x="435.0" y="10.0" width="1.4326647564469914" height="0.0" style="fill:cyan;opacity:0.3;"/>
  <text x="435.0" y="10.0" transform="matrix(6.123233995736766E-17,-1.0,1.0,6.123233995736766E-17,425.0,445.0)" style="font-size:1.0000000000000013px;">Turks and Caico</text>
  <rect x="436.0" y="10.0" width="1.4326647564469914" height="0.0" style="fill:cyan;opacity:0.3;"/>
  <text x="436.0" y="10.0" transform="matrix(6.123233995736766E-17,-1.0,1.0,6.123233995736766E-17,426.0,446.0)" style="font-size:1.0000000000000013px;">Brunei Darussal</text>
  <rect x="438.0" y="10.0" width="1.4326647564469914" height="0.0" style="fill:cyan;opacity:0.3;"/>
  <text x="438.0" y="10.0" transform="matrix(6.123233995736766E-17,-1.0,1.0,6.123233995736766E-17,428.0,448.0)" style="font-size:1.0000000000000013px;">New Caledonia.</text>
  <rect x="439.0" y="10.0" width="1.4326647564469914" height="0.0" style="fill:cyan;opacity:0.3;"/>
  <text x="439.0" y="10.0" transform="matrix(6.123233995736766E-17,-1.0,1.0,6.123233995736766E-17,429.0,449.0)" style="font-size:1.0000000000000013px;">Lao People's De</text>
  <rect x="441.0" y="10.0" width="1.4326647564469914" height="0.0" style="fill:cyan;opacity:0.3;"/>
  <text x="441.0" y="10.0" transform="matrix(6.123233995736766E-17,-1.0,1.0,6.123233995736766E-17,431.0,451.0)" style="font-size:1.0000000000000013px;">Christmas Islan</text>
  <rect x="442.0" y="10.0" width="1.4326647564469914" height="0.0" style="fill:cyan;opacity:0.3;"/>
  <text x="442.0" y="10.0" transform="matrix(6.123233995736766E-17,-1.0,1.0,6.123233995736766E-17,432.0,452.0)" style="font-size:1.0000000000000013px;">Syrian Arab Rep</text>
  <rect x="444.0" y="10.0" width="1.4326647564469914" height="0.0" style="fill:cyan;opacity:0.3;"/>
  <text x="444.0" y="10.0" transform="matrix(6.123233995736766E-17,-1.0,1.0,6.123233995736766E-17,434.0,454.0)" style="font-size:1.0000000000000013px;">Korea, Republic</text>
  <rect x="445.0" y="10.0" width="1.4326647564469914" height="0.0" style="fill:cyan;opacity:0.3;"/>
  <text x="445.0" y="10.0" transform="matrix(6.123233995736766E-17,-1.0,1.0,6.123233995736766E-17,435.0,455.0)" style="font-size:1.0000000000000013px;">Guam</text>
  <rect x="446.0" y="10.0" width="1.4326647564469914" height="0.0" style="fill:cyan;opacity:0.3;"/>
  <text x="446.0" y="10.0" transform="matrix(6.123233995736766E-17,-1.0,1.0,6.123233995736766E-17,436.0,456.0)" style="font-size:1.0000000000000013px;">San Marino,</text>
  <rect x="448.0" y="10.0" width="1.4326647564469914" height="0.0" style="fill:cyan;opacity:0.3;"/>
  <text x="448.0" y="10.0" transform="matrix(6.123233995736766E-17,-1.0,1.0,6.123233995736766E-17,438.0,458.0)" style="font-size:1.0000000000000013px;">Norfolk Island</text>
  <rect x="449.0" y="10.0" width="1.4326647564469914" height="0.0" style="fill:cyan;opacity:0.3;"/>
  <text x="449.0" y="10.0" transform="matrix(6.123233995736766E-17,-1.0,1.0,6.123233995736766E-17,439.0,459.0)" style="font-size:1.0000000000000013px;">Saint Vincent a</text>
  <rect x="451.0" y="10.0" width="1.4326647564469914" height="0.0" style="fill:cyan;opacity:0.3;"/>
  <text x="451.0" y="10.0" transform="matrix(6.123233995736766E-17,-1.0,1.0,6.123233995736766E-17,441.0,461.0)" style="font-size:1.0000000000000013px;">Viet Nam?</text>
  <rect x="452.0" y="10.0" width="1.4326647564469914" height="0.0" style="fill:cyan;opacity:0.3;"/>
  <text x="452.0" y="10.0" transform="matrix(6.123233995736766E-17,-1.0,1.0,6.123233995736766E-17,442.0,462.0)" style="font-size:1.0000000000000013px;">Isle of Man;</text>
  <rect x="454.0" y="10.0" width="1.4326647564469914" height="0.0" style="fill:cyan;opacity:0.3;"/>
  <text x="454.0" y="10.0" transform="matrix(6.123233995736766E-17,-1.0,1.0,6.123233995736766E-17,444.0,464.0)" style="font-size:1.0000000000000013px;">Western Sahara,</text>
  <rect x="455.0" y="10.0" width="1.4326647564469914" height="0.0" style="fill:cyan;opacity:0.3;"/>
  <text x="455.0" y="10.0" transform="matrix(6.123233995736766E-17,-1.0,1.0,6.123233995736766E-17,445.0,465.0)" style="font-size:1.0000000000000013px;">Lao People's De</text>
  <rect x="456.0" y="10.0" width="1.4326647564469914" height="0.0" style="fill:cyan;opacity:0.3;"/>
  <text x="456.0" y="10.0" transform="matrix(6.123233995736766E-17,-1.0,1.0,6.123233995736766E-17,446.0,466.0)" style="font-size:1.0000000000000013px;">Democratic Repu</text>
  <rect x="458.0" y="10.0" width="1.4326647564469914" height="0.0" style="fill:cyan;opacity:0.3;"/>
  <text x="458.0" y="10.0" transform="matrix(6.123233995736766E-17,-1.0,1.0,6.123233995736766E-17,448.0,468.0)" style="font-size:1.0000000000000013px;">United States?</text>
  <rect x="459.0" y="10.0" width="1.4326647564469914" height="0.0" style="fill:cyan;opacity:0.3;"/>
  <text x="459.0" y="10.0" transform="matrix(6.123233995736766E-17,-1.0,1.0,6.123233995736766E-17,449.0,469.0)" style="font-size:1.0000000000000013px;">Sri Lanka;</text>
  <rect x="461.0" y="10.0" width="1.4326647564469914" height="0.0" style="fill:cyan;opacity:0.3;"/>
  <text x="461.0" y="10.0" transform="matrix(6.123233995736766E-17,-1.0,1.0,6.123233995736766E-17,451.0,471.0)" style="font-size:1.0000000000000013px;">El Salvador;</text>
  <rect x="462.0" y="10.0" width="1.4326647564469914" height="0.0" style="fill:cyan;opacity:0.3;"/>
  <text x="462.0" y="10.0" transform="matrix(6.123233995736766E-17,-1.0,1.0,6.123233995736766E-17,452.0,472.0)" style="font-size:1.0000000000000013px;">Russian Federat</text>
  <rect x="464.0" y="10.0" width="1.4326647564469914" height="0.0" style="fill:cyan;opacity:0.3;"/>
  <text x="464.0" y="10.0" transform="matrix(6.123233995736766E-17,-1.0,1.0,6.123233995736766E-17,454.0,474.0)" style="font-size:1.0000000000000013px;">Saint Kitts and</text>
  <rect x="465.0" y="10.0" width="1.4326647564469914" height="0.0" style="fill:cyan;opacity:0.3;"/>
  <text x="465.0" y="10.0" transform="matrix(6.123233995736766E-17,-1.0,1.0,6.123233995736766E-17,455.0,475.0)" style="font-size:1.0000000000000013px;">Saint Kitts and</text>
  <rect x="467.0" y="10.0" width="1.4326647564469914" height="0.0" style="fill:cyan;opacity:0.3;"/>
  <text x="467.0" y="10.0" transform="matrix(6.123233995736766E-17,-1.0,1.0,6.123233995736766E-17,457.0,477.0)" style="font-size:1.0000000000000013px;">American Samoa,</text>
  <rect x="468.0" y="10.0" width="1.4326647564469914" height="0.0" style="fill:cyan;opacity:0.3;"/>
  <text x="468.0" y="10.0" transform="matrix(6.123233995736766E-17,-1.0,1.0,6.123233995736766E-17,458.0,478.0)" style="font-size:1.0000000000000013px;">American Samoa.</text>
  <rect x="469.0" y="10.0" width="1.4326647564469914" height="0.0" style="fill:cyan;opacity:0.3;"/>
  <text x="469.0" y="10.0" transform="matrix(6.123233995736766E-17,-1.0,1.0,6.123233995736766E-17,459.0,479.0)" style="font-size:1.0000000000000013px;">Western Sahara</text>
  <rect x="471.0" y="10.0" width="1.4326647564469914" height="0.0" style="fill:cyan;opacity:0.3;"/>
  <text x="471.0" y="10.0" transform="matrix(6.123233995736766E-17,-1.0,1.0,6.123233995736766E-17,461.0,481.0)" style="font-size:1.0000000000000013px;">Bosnia and Herz</text>
  <rect x="472.0" y="10.0" width="1.4326647564469914" height="0.0" style="fill:cyan;opacity:0.3;"/>
  <text x="472.0" y="10.0" transform="matrix(6.123233995736766E-17,-1.0,1.0,6.123233995736766E-17,462.0,482.0)" style="font-size:1.0000000000000013px;">Czech Republic;</text>
  <rect x="474.0" y="10.0" width="1.4326647564469914" height="0.0" style="fill:cyan;opacity:0.3;"/>
  <text x="474.0" y="10.0" transform="matrix(6.123233995736766E-17,-1.0,1.0,6.123233995736766E-17,464.0,484.0)" style="font-size:1.0000000000000013px;">Saint Lucia,</text>
  <rect x="475.0" y="10.0" width="1.4326647564469914" height="0.0" style="fill:cyan;opacity:0.3;"/>
  <text x="475.0" y="10.0" transform="matrix(6.123233995736766E-17,-1.0,1.0,6.123233995736766E-17,465.0,485.0)" style="font-size:1.0000000000000013px;">Macao</text>
  <rect x="477.0" y="10.0" width="1.4326647564469914" height="0.0" style="fill:cyan;opacity:0.3;"/>
  <text x="477.0" y="10.0" transform="matrix(6.123233995736766E-17,-1.0,1.0,6.123233995736766E-17,467.0,487.0)" style="font-size:1.0000000000000013px;">Cook Islands.</text>
  <rect x="478.0" y="10.0" width="1.4326647564469914" height="0.0" style="fill:cyan;opacity:0.3;"/>
  <text x="478.0" y="10.0" transform="matrix(6.123233995736766E-17,-1.0,1.0,6.123233995736766E-17,468.0,488.0)" style="font-size:1.0000000000000013px;">Tanzania, Unite</text>
  <rect x="479.0" y="10.0" width="1.4326647564469914" height="0.0" style="fill:cyan;opacity:0.3;"/>
  <text x="479.0" y="10.0" transform="matrix(6.123233995736766E-17,-1.0,1.0,6.123233995736766E-17,468.99999999999994,489.0)" style="font-size:1.0000000000000013px;">land Islands.</text>
  <rect x="481.0" y="10.0" width="1.4326647564469914" height="0.0" style="fill:cyan;opacity:0.3;"/>
  <text x="481.0" y="10.0" transform="matrix(6.123233995736766E-17,-1.0,1.0,6.123233995736766E-17,470.99999999999994,491.0)" style="font-size:1.0000000000000013px;">Northern Marian</text>
  <rect x="482.0" y="10.0" width="1.4326647564469914" height="0.0" style="fill:cyan;opacity:0.3;"/>
  <text x="482.0" y="10.0" transform="matrix(6.123233995736766E-17,-1.0,1.0,6.123233995736766E-17,471.99999999999994,492.0)" style="font-size:1.0000000000000013px;">Northern Marian</text>
  <rect x="484.0" y="10.0" width="1.4326647564469914" height="0.0" style="fill:cyan;opacity:0.3;"/>
  <text x="484.0" y="10.0" transform="matrix(6.123233995736766E-17,-1.0,1.0,6.123233995736766E-17,473.99999999999994,494.0)" style="font-size:1.0000000000000013px;">Brunei Darussal</text>
  <rect x="485.0" y="10.0" width="1.4326647564469914" height="0.0" style="fill:cyan;opacity:0.3;"/>
  <text x="485.0" y="10.0" transform="matrix(6.123233995736766E-17,-1.0,1.0,6.123233995736766E-17,474.99999999999994,495.0)" style="font-size:1.0000000000000013px;">South Sudan;</text>
  <rect x="487.0" y="10.0" width="1.4326647564469914" height="0.0" style="fill:cyan;opacity:0.3;"/>
  <text x="487.0" y="10.0" transform="matrix(6.123233995736766E-17,-1.0,1.0,6.123233995736766E-17,476.99999999999994,497.0)" style="font-size:1.0000000000000013px;">Syrian Arab Rep</text>
  <rect x="488.0" y="10.0" width="1.4326647564469914" height="0.0" style="fill:cyan;opacity:0.3;"/>
  <text x="488.0" y="10.0" transform="matrix(6.123233995736766E-17,-1.0,1.0,6.123233995736766E-17,477.99999999999994,498.0)" style="font-size:1.0000000000000013px;">Saint Vincent a</text>
  <rect x="489.0" y="10.0" width="1.4326647564469914" height="0.0" style="fill:cyan;opacity:0.3;"/>
  <text x="489.0" y="10.0" transform="matrix(6.123233995736766E-17,-1.0,1.0,6.123233995736766E-17,478.99999999999994,499.0)" style="font-size:1.0000000000000013px;">South Sudan?</text>
  <rect x="491.0" y="10.0" width="1.4326647564469914" height="0.0" style="fill:cyan;opacity:0.3;"/>
  <text x="491.0" y="10.0" transform="matrix(6.123233995736766E-17,-1.0,1.0,6.123233995736766E-17,480.99999999999994,501.0)" style="font-size:1.0000000000000013px;">Sri Lanka?</text>
  <rect x="492.0" y="10.0" width="1.4326647564469914" height="0.0" style="fill:cyan;opacity:0.3;"/>
  <text x="492.0" y="10.0" transform="matrix(6.123233995736766E-17,-1.0,1.0,6.123233995736766E-17,481.99999999999994,502.0)" style="font-size:1.0000000000000013px;">Solomon Islands</text>
  <rect x="494.0" y="10.0" width="1.4326647564469914" height="0.0" style="fill:cyan;opacity:0.3;"/>
  <text x="494.0" y="10.0" transform="matrix(6.123233995736766E-17,-1.0,1.0,6.123233995736766E-17,483.99999999999994,504.0)" style="font-size:1.0000000000000013px;">Christmas Islan</text>
  <rect x="495.0" y="10.0" width="1.4326647564469914" height="0.0" style="fill:cyan;opacity:0.3;"/>
  <text x="495.0" y="10.0" transform="matrix(6.123233995736766E-17,-1.0,1.0,6.123233995736766E-17,484.99999999999994,505.0)" style="font-size:1.0000000000000013px;">Antigua and Bar</text>
  <rect x="497.0" y="10.0" width="1.4326647564469914" height="0.0" style="fill:cyan;opacity:0.3;"/>
  <text x="497.0" y="10.0" transform="matrix(6.123233995736766E-17,-1.0,1.0,6.123233995736766E-17,486.99999999999994,507.0)" style="font-size:1.0000000000000013px;">Curaao</text>
  <rect x="498.0" y="10.0" width="1.4326647564469914" height="0.0" style="fill:cyan;opacity:0.3;"/>
  <text x="498.0" y="10.0" transform="matrix(6.123233995736766E-17,-1.0,1.0,6.123233995736766E-17,487.99999999999994,508.0)" style="font-size:1.0000000000000013px;">American Samoa;</text>
  <rect x="499.0" y="10.0" width="1.4326647564469914" height="0.0" style="fill:cyan;opacity:0.3;"/>
  <text x="499.0" y="10.0" transform="matrix(6.123233995736766E-17,-1.0,1.0,6.123233995736766E-17,488.99999999999994,509.0)" style="font-size:1.0000000000000013px;">San Marino;</text>
  <rect x="501.0" y="10.0" width="1.4326647564469914" height="0.0" style="fill:cyan;opacity:0.3;"/>
  <text x="501.0" y="10.0" transform="matrix(6.123233995736766E-17,-1.0,1.0,6.123233995736766E-17,490.99999999999994,511.0)" style="font-size:1.0000000000000013px;">British Virgin </text>
  <rect x="502.0" y="10.0" width="1.4326647564469914" height="0.0" style="fill:cyan;opacity:0.3;"/>
  <text x="502.0" y="10.0" transform="matrix(6.123233995736766E-17,-1.0,1.0,6.123233995736766E-17,491.99999999999994,512.0)" style="font-size:1.0000000000000013px;">Sao Tome and Pr</text>
  <rect x="504.0" y="10.0" width="1.4326647564469914" height="0.0" style="fill:cyan;opacity:0.3;"/>
  <text x="504.0" y="10.0" transform="matrix(6.123233995736766E-17,-1.0,1.0,6.123233995736766E-17,493.99999999999994,514.0)" style="font-size:1.0000000000000013px;">United Arab Emi</text>
  <rect x="505.0" y="10.0" width="1.4326647564469914" height="0.0" style="fill:cyan;opacity:0.3;"/>
  <text x="505.0" y="10.0" transform="matrix(6.123233995736766E-17,-1.0,1.0,6.123233995736766E-17,494.99999999999994,515.0)" style="font-size:1.0000000000000013px;">Burkina Faso?</text>
  <rect x="507.0" y="10.0" width="1.4326647564469914" height="0.0" style="fill:cyan;opacity:0.3;"/>
  <text x="507.0" y="10.0" transform="matrix(6.123233995736766E-17,-1.0,1.0,6.123233995736766E-17,496.99999999999994,517.0)" style="font-size:1.0000000000000013px;">Cape Verde.</text>
  <rect x="508.0" y="10.0" width="1.4326647564469914" height="0.0" style="fill:cyan;opacity:0.3;"/>
  <text x="508.0" y="10.0" transform="matrix(6.123233995736766E-17,-1.0,1.0,6.123233995736766E-17,497.99999999999994,518.0)" style="font-size:1.0000000000000013px;">Marshall Island</text>
 </g>
</svg>
